<svg width="29" height="28" viewBox="0 0 29 28" fill="none" xmlns="http://www.w3.org/2000/svg">
<g clip-path="url(#clip0_5172_209)">
<path d="M14.1868 6.24442C12.1723 6.24442 10.5332 7.88356 10.5332 9.89802C10.5332 11.9125 12.1723 13.5516 14.1868 13.5516C16.2016 13.5516 17.8404 11.9125 17.8404 9.89802C17.8404 7.88356 16.2016 6.24442 14.1868 6.24442ZM14.1868 11.5588C13.2711 11.5588 12.5261 10.8138 12.5261 9.89802C12.5261 8.98228 13.2711 8.23727 14.1868 8.23727C15.1025 8.23727 15.8475 8.98228 15.8475 9.89802C15.8475 10.8138 15.1025 11.5588 14.1868 11.5588Z" fill="black"/>
<path d="M9.64299 5.3546C10.0323 4.96566 10.0323 4.33457 9.64299 3.94563C9.25406 3.55637 8.62297 3.55637 8.23403 3.94563C4.96105 7.21861 4.96105 12.5442 8.23403 15.8172C8.42834 16.0118 8.68345 16.1092 8.93851 16.1092C9.19363 16.1092 9.44869 16.0118 9.64299 15.8172C10.0323 15.4283 10.0323 14.7972 9.64299 14.4082C7.1469 11.9122 7.1469 7.85069 9.64299 5.3546Z" fill="black"/>
<path d="M20.1394 3.94563C19.7501 3.55637 19.1197 3.55637 18.7304 3.94563C18.3412 4.33457 18.3412 4.96566 18.7304 5.3546C21.2265 7.85069 21.2265 11.9122 18.7304 14.4082C18.3412 14.7972 18.3412 15.4283 18.7304 15.8172C18.9251 16.0118 19.1798 16.1092 19.4349 16.1092C19.69 16.1092 19.9448 16.0118 20.1394 15.8172C23.4123 12.5442 23.4123 7.21861 20.1394 3.94563Z" fill="black"/>
<path d="M2.59442 9.89802C2.59442 6.8014 3.80011 3.89018 5.98963 1.70099C6.37856 1.31173 6.37889 0.680638 5.98963 0.291702C5.60036 -0.097234 4.96927 -0.097234 4.58034 0.291702C2.01452 2.85752 0.601562 6.26902 0.601562 9.89802C0.601562 13.527 2.01452 16.9382 4.58034 19.504C4.77464 19.6986 5.02976 19.796 5.28482 19.796C5.53988 19.796 5.79499 19.6986 5.9893 19.504C6.37856 19.1147 6.37856 18.484 5.9893 18.095C3.80011 15.9055 2.59442 12.9946 2.59442 9.89802Z" fill="black"/>
<path d="M23.7927 0.29236C23.4034 -0.096904 22.773 -0.096904 22.3837 0.29236C21.9945 0.681296 21.9945 1.31239 22.3837 1.70132C26.9033 6.22084 26.9033 13.5752 22.3837 18.095C21.9945 18.484 21.9945 19.1151 22.3837 19.504C22.5784 19.6986 22.8332 19.796 23.0882 19.796C23.3433 19.796 23.5981 19.6986 23.7927 19.5043C29.0894 14.2076 29.0894 5.5891 23.7927 0.29236Z" fill="black"/>
<path d="M21.8562 26.6362L16.0768 12.055C15.8736 11.5435 15.2943 11.293 14.7832 11.4957C14.2717 11.6986 14.0212 12.2775 14.2238 12.7893L18.6822 24.0375L11.3368 18.4395C10.8991 18.1054 10.274 18.1904 9.94049 18.6279C9.60668 19.0653 9.69106 19.6907 10.1288 20.0242L20.3257 27.7961C20.5041 27.9319 20.7167 28 20.9296 28C21.1415 28 21.3537 27.9326 21.5314 27.7974C21.8884 27.5273 22.0209 27.0524 21.8562 26.6362Z" fill="black"/>
<path d="M18.5699 18.6325C18.2388 18.1927 17.6137 18.1047 17.1746 18.4351L9.67542 24.0773L14.1498 12.7897C14.3524 12.2779 14.1019 11.6989 13.5904 11.496C13.0786 11.2938 12.4996 11.5439 12.2967 12.0554L6.5174 26.6365C6.35301 27.0514 6.48453 27.5254 6.83956 27.7961C7.01795 27.9319 7.23085 28 7.44374 28C7.65467 28 7.86555 27.9332 8.04295 27.7997L18.3727 20.0279C18.8124 19.697 18.9008 19.0723 18.5699 18.6325Z" fill="black"/>
</g>
<defs>
<clipPath id="clip0_5172_209">
<rect width="28" height="28" fill="white" transform="translate(0.183594)"/>
</clipPath>
</defs>
</svg>
