<svg width="30" height="30" viewBox="0 0 30 30" fill="none" xmlns="http://www.w3.org/2000/svg">
<path d="M22.6348 22.5H4.55273C2.56055 22.5 0.9375 20.877 0.9375 18.8848V11.1152C0.9375 9.12305 2.56055 7.5 4.55273 7.5H22.6348C24.627 7.5 26.25 9.12305 26.25 11.1152V18.8848C26.25 20.877 24.627 22.5 22.6348 22.5ZM4.55273 9.375C3.5918 9.375 2.8125 10.1543 2.8125 11.1152V18.8848C2.8125 19.8457 3.5918 20.625 4.55273 20.625H22.6348C23.5957 20.625 24.375 19.8457 24.375 18.8848V11.1152C24.375 10.1543 23.5957 9.375 22.6348 9.375H4.55273Z" fill="black"/>
<path d="M5.25586 11.6543H21.9316C22.0605 11.6543 22.166 11.7598 22.166 11.8887V18.1055C22.166 18.2344 22.0605 18.3398 21.9316 18.3398H5.25586C5.12695 18.3398 5.02148 18.2344 5.02148 18.1055V11.8887C5.02148 11.7598 5.12695 11.6543 5.25586 11.6543Z" fill="black"/>
<path d="M21.9316 19.2832H5.25586C4.61133 19.2832 4.08398 18.7559 4.08398 18.1113V11.8887C4.08398 11.2441 4.61133 10.7168 5.25586 10.7168H21.9316C22.5762 10.7168 23.1035 11.2441 23.1035 11.8887V18.1055C23.1035 18.7559 22.5762 19.2832 21.9316 19.2832ZM5.95898 17.4082H21.2285V12.5977H5.95898V17.4082Z" fill="black"/>
<path d="M28.125 18.123C27.6094 18.123 27.1875 17.7012 27.1875 17.1855V12.8086C27.1875 12.293 27.6094 11.8711 28.125 11.8711C28.6406 11.8711 29.0625 12.293 29.0625 12.8086V17.1855C29.0625 17.707 28.6406 18.123 28.125 18.123Z" fill="black"/>
</svg>
