<svg width="31" height="30" viewBox="0 0 31 30" fill="none" xmlns="http://www.w3.org/2000/svg">
<path d="M25.8223 6.5625H21.7967L21.328 5.15625C21.102 4.47344 20.6664 3.87932 20.0832 3.4585C19.4999 3.03768 18.7988 2.81161 18.0795 2.8125H12.2877C11.5686 2.81195 10.8677 3.03816 10.2847 3.45895C9.70166 3.87974 9.26616 4.47367 9.04016 5.15625L8.57047 6.5625H4.54484C3.63711 6.5635 2.76685 6.92453 2.12498 7.56639C1.48312 8.20825 1.12209 9.07852 1.12109 9.98625V23.7675C1.12308 24.6746 1.48455 25.5439 2.12631 26.1849C2.76806 26.826 3.63776 27.1865 4.54484 27.1875H25.8261C26.7332 27.1855 27.6025 26.824 28.2435 26.1823C28.8846 25.5405 29.2451 24.6708 29.2461 23.7638V9.9825C29.2441 9.07542 28.8826 8.20612 28.2409 7.56506C27.5991 6.92401 26.7294 6.56349 25.8223 6.5625ZM27.3711 23.7638C27.3706 24.1744 27.2073 24.568 26.9169 24.8583C26.6266 25.1487 26.2329 25.312 25.8223 25.3125H4.54484C4.13424 25.312 3.7406 25.1487 3.45026 24.8583C3.15992 24.568 2.99659 24.1744 2.99609 23.7638V9.9825C2.99758 9.57255 3.16135 9.17987 3.45158 8.89034C3.74181 8.60081 4.13489 8.438 4.54484 8.4375H9.24641C9.44309 8.43735 9.63474 8.37535 9.79424 8.26027C9.95374 8.14519 10.073 7.98286 10.1352 7.79625L10.8186 5.74594C10.9212 5.43755 11.1184 5.16932 11.3821 4.97932C11.6458 4.78933 11.9626 4.68722 12.2877 4.6875H18.0795C18.4047 4.68715 18.7217 4.78933 18.9854 4.97953C19.2492 5.16972 19.4463 5.43823 19.5486 5.74688L20.232 7.79625C20.2942 7.98286 20.4134 8.14519 20.5729 8.26027C20.7324 8.37535 20.9241 8.43735 21.1208 8.4375H25.8223C26.2329 8.438 26.6266 8.60133 26.9169 8.89167C27.2073 9.18201 27.3706 9.57565 27.3711 9.98625V23.7638Z" fill="black"/>
<path d="M15.1836 9.375C13.7929 9.375 12.4335 9.78738 11.2772 10.56C10.121 11.3326 9.21975 12.4307 8.68757 13.7155C8.15539 15.0003 8.01615 16.414 8.28745 17.778C8.55875 19.1419 9.22841 20.3948 10.2118 21.3781C11.1951 22.3614 12.4479 23.0311 13.8119 23.3024C15.1758 23.5737 16.5895 23.4345 17.8743 22.9023C19.1591 22.3701 20.2573 21.4689 21.0299 20.3126C21.8025 19.1563 22.2148 17.7969 22.2148 16.4062C22.2129 14.5421 21.4714 12.7548 20.1532 11.4366C18.8351 10.1184 17.0478 9.37699 15.1836 9.375ZM15.1836 21.5625C14.1638 21.5625 13.1669 21.2601 12.3189 20.6935C11.471 20.1269 10.8101 19.3216 10.4198 18.3795C10.0296 17.4373 9.92747 16.4005 10.1264 15.4003C10.3254 14.4001 10.8165 13.4813 11.5376 12.7602C12.2587 12.0391 13.1774 11.548 14.1777 11.3491C15.1779 11.1501 16.2146 11.2522 17.1568 11.6425C18.099 12.0328 18.9043 12.6937 19.4709 13.5416C20.0374 14.3895 20.3398 15.3864 20.3398 16.4062C20.3384 17.7733 19.7946 19.084 18.828 20.0506C17.8613 21.0173 16.5507 21.561 15.1836 21.5625Z" fill="black"/>
<path d="M24.5586 12.1875C25.0764 12.1875 25.4961 11.7678 25.4961 11.25C25.4961 10.7322 25.0764 10.3125 24.5586 10.3125C24.0408 10.3125 23.6211 10.7322 23.6211 11.25C23.6211 11.7678 24.0408 12.1875 24.5586 12.1875Z" fill="black"/>
</svg>
