<svg width="45" height="46" viewBox="0 0 45 46" fill="none" xmlns="http://www.w3.org/2000/svg">
<g clip-path="url(#clip0_5911_829)">
<path d="M26.1351 14.7669H24.8166V13.4485H26.1351V14.7669ZM23.4982 13.4485H22.1797V12.13H23.4982V13.4485Z" fill="white"/>
<path d="M24.6652 7.74004C24.8371 7.78407 25.0116 7.80587 25.1859 7.80587C25.6083 7.80587 26.0296 7.67789 26.4091 7.42932C27.1356 6.95335 27.6466 6.09442 27.8113 5.0727C28.1019 3.26877 27.2351 1.57498 25.8379 1.21671C25.2492 1.06588 24.63 1.17619 24.0939 1.52743C23.3675 2.0034 22.8564 2.86233 22.6918 3.88406C22.4011 5.68807 23.2679 7.38177 24.6652 7.74004ZM23.9935 4.09378C24.0978 3.44676 24.4055 2.8996 24.8165 2.63028C24.9807 2.5227 25.1472 2.46873 25.3138 2.46873C25.3794 2.46873 25.445 2.47717 25.5104 2.49395C26.2292 2.67828 26.6868 3.7632 26.5096 4.86306C26.4053 5.51016 26.0977 6.05724 25.6866 6.32656C25.4577 6.47642 25.2244 6.5223 24.9926 6.46297C24.2738 6.27856 23.8163 5.19364 23.9935 4.09378Z" fill="#B790E1"/>
<path d="M28.8572 10.2546C29.2417 10.587 29.7266 10.7636 30.2429 10.7636C30.3241 10.7636 30.4062 10.7592 30.4888 10.7504C31.2258 10.6715 31.9339 10.2468 32.4316 9.58512C33.3622 8.34796 33.3035 6.69821 32.2979 5.82934C31.8527 5.44479 31.2734 5.26899 30.6664 5.33369C29.9295 5.41253 29.2213 5.83725 28.7235 6.49895C27.7929 7.73602 27.8516 9.38577 28.8572 10.2546ZM29.7771 7.29161C30.0563 6.92059 30.4315 6.68485 30.8067 6.64468C30.8391 6.64125 30.8743 6.63906 30.9114 6.63906C31.0693 6.63906 31.2639 6.67843 31.4358 6.82707C31.9026 7.23034 31.876 8.13041 31.3779 8.79255C31.0988 9.16348 30.7237 9.39931 30.3485 9.43939C30.1785 9.45749 29.9316 9.44062 29.7192 9.25709C29.2525 8.85372 29.279 7.95365 29.7771 7.29161Z" fill="#B790E1"/>
<path d="M12.8656 9.23759C14.5454 8.63953 15.346 6.56321 14.6503 4.60916C13.9546 2.6552 12.0223 1.55182 10.3423 2.14996C8.66256 2.74793 7.8619 4.82425 8.55761 6.77839C9.12516 8.3725 10.5156 9.40029 11.9207 9.40029C12.238 9.40029 12.5562 9.34781 12.8656 9.23759ZM9.79969 6.33618C9.34781 5.06693 9.78958 3.74627 10.7845 3.39204C10.9523 3.33236 11.1252 3.30388 11.299 3.30388C12.1557 3.30388 13.0326 3.99634 13.4082 5.05146C13.8601 6.32062 13.4183 7.64137 12.4233 7.9956C11.4287 8.34956 10.2515 7.60533 9.79969 6.33618Z" fill="#B790E1"/>
<path d="M18.8744 7.45883C18.8856 7.459 18.8966 7.45909 18.9077 7.45909C19.482 7.45909 20.0385 7.21544 20.4781 6.77068C21.1252 6.11601 21.4785 5.10379 21.4473 3.99364C21.393 2.05883 20.2029 0.524405 18.7378 0.500321C18.1492 0.489861 17.5822 0.735096 17.1341 1.18847C16.4871 1.84313 16.1339 2.85536 16.165 3.96551C16.2192 5.9004 17.4093 7.43483 18.8744 7.45883ZM18.0718 2.11544C18.2665 1.91837 18.4791 1.81861 18.7037 1.81861C18.7079 1.81861 18.712 1.81861 18.7162 1.8187C19.5128 1.8318 20.1003 2.99495 20.1293 4.03064C20.1501 4.77188 19.93 5.44975 19.5404 5.8438C19.342 6.04447 19.1216 6.14432 18.896 6.14054C18.0994 6.12753 17.5119 4.96438 17.4829 3.92859C17.4622 3.18735 17.6823 2.50957 18.0718 2.11544Z" fill="#B790E1"/>
<path d="M36.3717 10.9581C36.0821 10.5086 35.6246 10.212 35.0835 10.1226C34.4297 10.0143 33.7182 10.2193 33.132 10.6844C32.0524 11.541 31.7085 12.9905 32.3491 13.9844C32.6386 14.4337 33.0961 14.7305 33.6372 14.8198C33.7519 14.8387 33.8683 14.8481 33.9855 14.8481C34.5367 14.8481 35.1052 14.6416 35.5886 14.258C36.6682 13.4015 37.0121 11.952 36.3717 10.9581ZM34.7692 13.2251C34.4782 13.4559 34.1352 13.5656 33.8523 13.519C33.6781 13.4902 33.5452 13.4065 33.4574 13.2701C33.1937 12.861 33.4246 12.1353 33.9515 11.7172C34.1982 11.5215 34.4822 11.4128 34.7356 11.4128C34.781 11.4128 34.8254 11.4163 34.8685 11.4234C35.0427 11.4522 35.1756 11.5359 35.2635 11.6723C35.527 12.0815 35.2961 12.8071 34.7692 13.2251Z" fill="#B790E1"/>
<path d="M27.8238 11.3904C26.384 10.1871 24.6208 9.43105 22.5829 9.14354C20.4218 8.83862 17.9329 9.0618 15.1852 9.80708L14.9609 9.86791L14.8243 10.0559C12.4551 13.3184 11.523 16.1976 11.9746 18.858C12.6879 23.0605 16.7319 25.8654 20.6428 28.5779C23.818 30.7802 26.8171 32.8604 27.9624 35.5206L28.5334 36.8468L29.1615 35.5467C30.1416 33.5178 30.9006 31.3307 31.4173 29.0458L30.1312 28.7549C29.7431 30.4714 29.1914 32.184 28.5167 33.7752C26.9565 31.3526 24.1352 29.3956 21.3941 27.4944C17.7073 24.9373 13.895 22.2929 13.2744 18.6372C12.9088 16.4834 13.6427 14.0993 15.5154 11.3638C16.4629 12.0628 17.5863 13.0261 18.7645 14.2313L17.4432 18.7538L18.7088 19.1236L19.8106 15.3521C21.5347 17.2847 23.2976 19.703 24.7393 22.5403L23.5756 25.0479L24.7715 25.6029L25.4742 24.0888C26.0899 25.4842 26.6216 26.9683 27.0317 28.5349L28.3072 28.201C27.4324 24.8597 26.0262 21.876 24.4197 19.3111L26.7662 19.4395L26.8382 18.123L23.5168 17.9413C21.293 14.7318 18.8216 12.287 16.8839 10.7523C21.1798 9.8389 24.572 10.3909 26.9783 12.402C28.4647 13.6443 29.5414 15.4221 30.1783 17.6859C30.7682 19.7826 30.959 22.2887 30.7299 24.9333L32.0435 25.047C32.2861 22.2458 32.08 19.577 31.4475 17.3288C30.7373 14.8043 29.5181 12.8063 27.8238 11.3904Z" fill="#B790E1"/>
<path d="M22.5252 32.1399L21.668 33.1417C23.711 34.8899 25.0774 36.6243 25.7292 38.2968C26.4505 40.1476 26.3123 41.9058 25.3052 43.6498C24.0124 42.2802 22.9135 40.4981 22.1259 38.7684L23.457 37.6929L22.6284 36.6673L21.5995 37.4986C21.3331 36.786 21.1274 36.1037 20.9932 35.4884L19.7051 35.7694C19.9914 37.0817 20.5777 38.6769 21.388 40.2537L20.0059 40.3603L20.1073 41.6749L22.0923 41.5217C22.6563 42.4628 23.2959 43.3668 23.994 44.1658C22.1127 44.2588 20.7157 43.9149 19.7496 43.1212C17.8892 41.5927 17.7045 38.4452 17.509 35.113C17.4035 33.3133 17.2951 31.4677 16.9189 29.7572C17.9727 30.4087 19.3153 31.2734 20.6696 32.3279L21.4796 31.2876C19.7169 29.9151 17.9932 28.8652 16.8526 28.1705C16.5837 28.0068 16.3516 27.8654 16.1709 27.751L14.5303 26.7124L15.1994 28.5351C15.9172 30.4903 16.0574 32.8796 16.1929 35.1902C16.4058 38.8185 16.6069 42.2455 18.9128 44.14C20.02 45.0497 21.5043 45.4998 23.4173 45.4998C24.065 45.4998 24.7618 45.4482 25.5097 45.3454L25.7936 45.3064L25.9586 45.0721C27.5936 42.7528 27.9297 40.3122 26.9577 37.8179C26.2262 35.9411 24.7349 34.0308 22.5252 32.1399Z" fill="#B790E1"/>
<path d="M30.3926 27.5028L30.6128 26.2028L31.9128 26.423L31.6926 27.723L30.3926 27.5028Z" fill="#B790E1"/>
</g>
<defs>
<clipPath id="clip0_5911_829">
<rect width="45" height="45" fill="white" transform="translate(0 0.5)"/>
</clipPath>
</defs>
</svg>
