<svg width="32" height="32" viewBox="0 0 32 32" fill="none" xmlns="http://www.w3.org/2000/svg">
<path d="M18.5 14.5C18.155 14.5 17.875 14.78 17.875 15.125C17.875 15.47 18.155 15.75 18.5 15.75C18.845 15.75 19.125 15.47 19.125 15.125C19.125 14.78 18.845 14.5 18.5 14.5Z" fill="#6DBE4F"/>
<path d="M16 10.75C15.655 10.75 15.375 11.03 15.375 11.375C15.375 11.72 15.655 12 16 12C16.345 12 16.625 11.72 16.625 11.375C16.625 11.03 16.345 10.75 16 10.75Z" fill="#6DBE4F"/>
<path d="M8.5 27C8.155 27 7.875 27.28 7.875 27.625C7.875 27.97 8.155 28.25 8.5 28.25C8.845 28.25 9.125 27.97 9.125 27.625C9.125 27.28 8.845 27 8.5 27Z" fill="#6DBE4F"/>
<path d="M28.4006 25.4799L20.3746 11.2113V3.64287C21.1022 3.38494 21.6246 2.68988 21.6246 1.875C21.6246 0.841125 20.7835 0 19.7496 0H12.2496C11.2157 0 10.3746 0.841125 10.3746 1.875C10.3746 2.68988 10.897 3.38494 11.6246 3.64287V11.2113L3.5986 25.4799C2.8281 26.8496 2.84179 28.4773 3.6351 29.8338C4.42835 31.1902 5.8401 32 7.41148 32H24.5877C26.1591 32 27.5708 31.1902 28.3641 29.8338C29.1574 28.4773 29.1711 26.8496 28.4006 25.4799ZM12.7944 11.6814C12.847 11.5879 12.8746 11.4823 12.8746 11.375V3.75H13.4996C13.8447 3.75 14.1246 3.47012 14.1246 3.125C14.1246 2.77988 13.8447 2.5 13.4996 2.5H12.2496C11.905 2.5 11.6246 2.21962 11.6246 1.875C11.6246 1.53038 11.905 1.25 12.2496 1.25H19.7496C20.0942 1.25 20.3746 1.53038 20.3746 1.875C20.3746 2.21962 20.0942 2.5 19.7496 2.5H18.4996C18.1545 2.5 17.8746 2.77988 17.8746 3.125C17.8746 3.47012 18.1545 3.75 18.4996 3.75H19.1246V11.375C19.1246 11.4824 19.1522 11.5878 19.2049 11.6814L22.8887 18.2306C20.639 18.0484 18.3971 18.5034 16.3374 19.5699C13.6895 20.9402 10.7418 21.1814 7.96235 20.2716L12.7944 11.6814ZM27.285 29.2027C26.7185 30.1716 25.7101 30.75 24.5877 30.75H7.41148C6.2891 30.75 5.28073 30.1716 4.71417 29.2027C4.14748 28.2338 4.13767 27.0711 4.6881 26.0926L7.3386 21.3806C8.6246 21.8297 9.9536 22.0564 11.3034 22.0564C11.5032 22.0564 11.7035 22.0514 11.9042 22.0415C13.6483 21.9551 15.3331 21.4971 16.912 20.68C19.024 19.5865 21.3469 19.209 23.6484 19.5812L27.3112 26.0926C27.8615 27.0711 27.8518 28.2338 27.285 29.2027Z" fill="#6DBE4F"/>
<path d="M13.5 14.5C12.4661 14.5 11.625 15.3411 11.625 16.375C11.625 17.4089 12.4661 18.25 13.5 18.25C14.5339 18.25 15.375 17.4089 15.375 16.375C15.375 15.3411 14.5339 14.5 13.5 14.5ZM13.5 17C13.1554 17 12.875 16.7196 12.875 16.375C12.875 16.0304 13.1554 15.75 13.5 15.75C13.8446 15.75 14.125 16.0304 14.125 16.375C14.125 16.7196 13.8446 17 13.5 17Z" fill="#6DBE4F"/>
<path d="M23.5 27H11C10.6549 27 10.375 27.2799 10.375 27.625C10.375 27.9701 10.6549 28.25 11 28.25H23.5C23.8451 28.25 24.125 27.9701 24.125 27.625C24.125 27.2799 23.8451 27 23.5 27Z" fill="#6DBE4F"/>
</svg>
