<svg width="45" height="46" viewBox="0 0 45 46" fill="none" xmlns="http://www.w3.org/2000/svg">
<path d="M1.44963 21.0978C1.42229 21.404 1.52574 21.7098 1.73343 21.9367C1.9412 22.1638 2.23686 22.2941 2.54457 22.2941H3.92779C5.45867 22.2941 6.80489 21.1977 7.12886 19.6872C7.31923 18.7996 7.58808 17.9266 7.93015 17.084L9.90409 19.058C10.1661 19.32 10.5395 19.4318 10.902 19.3572C11.2645 19.2827 11.5628 19.0331 11.7 18.6894C12.8764 15.7422 15.2414 13.3764 18.1887 12.1987C18.5321 12.0615 18.7817 11.7632 18.8562 11.4009C18.9308 11.0381 18.8189 10.6651 18.557 10.403L16.5842 8.42958C17.4266 8.08742 18.2997 7.81857 19.1875 7.6282C20.698 7.30432 21.7944 5.9581 21.7944 4.42713V3.04426C21.7944 2.73655 21.6641 2.44089 21.437 2.23312C21.21 2.02552 20.9041 1.92198 20.5979 1.94941C18.2937 2.15507 16.0562 2.73304 13.9475 3.66714C13.6147 3.81462 13.4644 4.20398 13.6118 4.53682C13.7593 4.86966 14.1483 5.02004 14.4816 4.87256C16.3849 4.02943 18.4004 3.49584 20.4761 3.28534V4.42739C20.4761 5.35561 19.8326 6.14188 18.9111 6.33937C17.722 6.59434 16.5574 6.97912 15.4496 7.48309C15.1883 7.60192 15.0017 7.84177 14.9504 8.1246C14.8989 8.40849 14.9899 8.69976 15.1939 8.90375L17.3918 11.1023C14.3562 12.4083 11.9079 14.8573 10.6033 17.8929L8.40406 15.6937C8.20024 15.4898 7.90897 15.3989 7.625 15.4502C7.34208 15.5014 7.10231 15.6881 6.9834 15.9495C6.47952 17.0575 6.09482 18.2222 5.83985 19.4109C5.64219 20.3323 4.856 20.9758 3.92779 20.9758H2.78565C3.39465 14.9926 6.7823 9.50686 11.8837 6.26396C12.191 6.06866 12.2817 5.66129 12.0864 5.35403C11.891 5.04658 11.4834 4.95606 11.1765 5.15135C5.79292 8.57364 2.04843 14.3853 1.44963 21.0978Z" fill="#F26E50"/>
<path d="M3.84012 8.18032C5.95767 8.18032 7.68032 6.45767 7.68032 4.34021C7.68032 2.22274 5.95767 0.5 3.84012 0.5C1.72274 0.5 0 2.22274 0 4.34021C0 6.45767 1.72274 8.18032 3.84012 8.18032ZM3.84012 1.81836C5.23063 1.81836 6.36196 2.94969 6.36196 4.34021C6.36196 5.73072 5.23063 6.86196 3.84012 6.86196C2.4496 6.86196 1.31836 5.73072 1.31836 4.34021C1.31836 2.94969 2.4496 1.81836 3.84012 1.81836Z" fill="#F26E50"/>
<path d="M25.8129 7.62866C26.7004 7.81894 27.5734 8.0878 28.416 8.42996L26.442 10.4039C26.1801 10.6659 26.0681 11.039 26.1428 11.4019C26.2174 11.7643 26.467 12.0627 26.8106 12.1998C29.7579 13.3763 32.1236 15.7413 33.3013 18.6886C33.4386 19.0321 33.7368 19.2816 34.0992 19.3561C34.4625 19.4307 34.8351 19.3187 35.097 19.0569L37.0704 17.084C37.4127 17.9264 37.6815 18.7996 37.8718 19.6873C38.1957 21.1979 39.5419 22.2943 41.0729 22.2943H42.4559C42.7637 22.2943 43.0592 22.1641 43.2671 21.937C43.4747 21.71 43.5782 21.4042 43.5509 21.0979C43.1123 16.186 40.9438 11.554 37.4448 8.05501C33.9457 4.556 29.3139 2.38774 24.4024 1.9496C24.0954 1.92236 23.7903 2.0258 23.5634 2.2334C23.3363 2.44118 23.2061 2.73684 23.2061 3.04454V4.42777C23.2061 5.95856 24.3024 7.30478 25.8129 7.62866ZM24.5244 3.28536C33.8811 4.23283 41.2666 11.6185 42.2149 20.9759H41.0728C40.1445 20.9759 39.3583 20.3324 39.1608 19.4109C38.906 18.2219 38.5211 17.0573 38.0169 15.9494C37.898 15.6881 37.6583 15.5015 37.3755 15.4503C37.0917 15.3989 36.8005 15.4898 36.5964 15.6937L34.3978 17.8916C33.0918 14.8559 30.6429 12.4078 27.6073 11.1031L29.8066 8.90386C30.0103 8.69987 30.1013 8.4086 30.0498 8.12471C29.9985 7.84188 29.8119 7.60211 29.5506 7.48329C28.4425 6.97932 27.2779 6.59454 26.0891 6.33965C25.1678 6.14207 24.5242 5.35589 24.5242 4.42768V3.28536H24.5244Z" fill="#F26E50"/>
<path d="M41.1595 8.18032C43.277 8.18032 44.9997 6.45767 44.9997 4.34021C44.9997 2.22274 43.2769 0.5 41.1595 0.5C39.042 0.5 37.3193 2.22274 37.3193 4.34021C37.3193 6.45767 39.042 8.18032 41.1595 8.18032ZM41.1595 1.81836C42.5501 1.81836 43.6813 2.94969 43.6813 4.34021C43.6813 5.73072 42.5501 6.86196 41.1595 6.86196C39.769 6.86196 38.6377 5.73063 38.6377 4.34021C38.6376 2.94969 39.7689 1.81836 41.1595 1.81836Z" fill="#F26E50"/>
<path d="M43.5508 24.9022C43.5781 24.596 43.4747 24.2902 43.267 24.0633C43.0592 23.8362 42.7636 23.7059 42.4559 23.7059H41.0726C39.5418 23.7059 38.1955 24.8023 37.8716 26.3128C37.6812 27.2004 37.4123 28.0734 37.0703 28.916L35.0963 26.942C34.8342 26.68 34.4608 26.5681 34.0984 26.6428C33.736 26.7173 33.4376 26.9669 33.3004 27.3106C32.1241 30.2578 29.759 32.6236 26.8117 33.8013C26.4683 33.9385 26.2188 34.2368 26.1442 34.5991C26.0696 34.9619 26.1815 35.3349 26.4434 35.597L28.4162 37.5704C27.5738 37.9126 26.7008 38.1814 25.813 38.3718C24.3024 38.6957 23.2061 40.0419 23.2061 41.5729V42.9559C23.2061 43.2636 23.3363 43.5593 23.5634 43.7671C23.7665 43.9528 24.0325 44.0551 24.3055 44.0551C24.3377 44.0551 24.3701 44.0536 24.4025 44.0508C29.3143 43.6123 33.9463 41.4438 37.4453 37.9447C40.9443 34.4457 43.1126 29.8136 43.5508 24.9022ZM24.5243 42.7147V41.5726C24.5243 40.6444 25.1679 39.8581 26.0893 39.6606C27.2784 39.4057 28.443 39.0209 29.5509 38.5169C29.8122 38.3981 29.9988 38.1582 30.05 37.8754C30.1015 37.5915 30.0105 37.3002 29.8066 37.0962L27.6086 34.8977C30.6442 33.5917 33.0925 31.1427 34.3971 28.1071L36.5963 30.3063C36.8001 30.5102 37.0916 30.6014 37.3753 30.5498C37.6583 30.4986 37.898 30.3119 38.0169 30.0505C38.5208 28.9425 38.9055 27.7778 39.1605 26.5891C39.3582 25.6677 40.1443 25.0242 41.0725 25.0242H42.2148C41.2673 34.381 33.8819 41.7665 24.5243 42.7147Z" fill="#F26E50"/>
<path d="M41.1595 37.8197C39.042 37.8197 37.3193 39.5424 37.3193 41.6598C37.3193 43.7773 39.042 45.5 41.1595 45.5C43.2769 45.5 44.9997 43.7773 44.9997 41.6598C44.9997 39.5424 43.2769 37.8197 41.1595 37.8197ZM41.1595 44.1817C39.769 44.1817 38.6377 43.0503 38.6377 41.6598C38.6377 40.2693 39.769 39.1381 41.1595 39.1381C42.5501 39.1381 43.6813 40.2693 43.6813 41.6598C43.6813 43.0503 42.5501 44.1817 41.1595 44.1817Z" fill="#F26E50"/>
<path d="M19.1876 38.3714C18.3001 38.1811 17.4271 37.9122 16.5845 37.5701L18.5585 35.5962C18.8204 35.3341 18.9324 34.9611 18.8577 34.5982C18.7831 34.2357 18.5335 33.9374 18.1899 33.8002C16.5847 33.1596 15.1149 32.1449 13.9391 30.8662C13.6927 30.5981 13.2756 30.5808 13.0077 30.8271C12.7397 31.0736 12.7222 31.4905 12.9687 31.7585C14.2017 33.0996 15.7261 34.1799 17.3932 34.8969L15.1939 37.0962C14.9901 37.3002 14.8991 37.5914 14.9506 37.8753C15.0019 38.1582 15.1885 38.3979 15.4498 38.5168C16.5579 39.0207 17.7225 39.4055 18.9113 39.6604C19.8327 39.858 20.4762 40.6441 20.4762 41.5724V42.7146C11.1194 41.7672 3.73381 34.3816 2.78556 25.0241H3.92761C4.85591 25.0241 5.6421 25.6677 5.83967 26.5891C6.09447 27.7781 6.47934 28.9427 6.98348 30.0507C7.1024 30.3119 7.34216 30.4985 7.62491 30.5497C7.90888 30.6011 8.19998 30.5104 8.40406 30.3064L10.6026 28.1084C10.7489 28.4483 10.9104 28.7835 11.0847 29.1086C11.2568 29.4295 11.6565 29.5501 11.9772 29.3779C12.298 29.2058 12.4186 28.8062 12.2465 28.4854C12.0429 28.1059 11.8588 27.7109 11.6991 27.3114C11.5618 26.9679 11.2636 26.7184 10.9012 26.644C10.5378 26.5693 10.1653 26.6812 9.90339 26.9431L7.92998 28.916C7.58773 28.0736 7.31896 27.2005 7.12859 26.3127C6.80471 24.8021 5.45849 23.7057 3.92753 23.7057H2.54457C2.23686 23.7057 1.94129 23.8359 1.73342 24.0631C1.52583 24.2901 1.42229 24.5958 1.44963 24.9021C1.8882 29.814 4.05673 34.446 7.55574 37.945C11.0548 41.444 15.6866 43.6123 20.5981 44.0504C20.6304 44.0533 20.6627 44.0547 20.6949 44.0547C20.968 44.0547 21.2342 43.9524 21.4371 43.7666C21.6642 43.5589 21.7945 43.2632 21.7945 42.9555V41.5723C21.7945 40.0415 20.6981 38.6953 19.1876 38.3714Z" fill="#F26E50"/>
<path d="M3.84012 37.8197C1.72274 37.8197 0 39.5424 0 41.6598C0 43.7773 1.72274 45.5 3.84012 45.5C5.95767 45.5 7.68032 43.7773 7.68032 41.6598C7.68032 39.5424 5.95767 37.8197 3.84012 37.8197ZM3.84012 44.1817C2.4496 44.1817 1.31836 43.0503 1.31836 41.6598C1.31836 40.2693 2.4496 39.1381 3.84012 39.1381C5.23063 39.1381 6.36196 40.2694 6.36196 41.6598C6.36205 43.0503 5.23072 44.1817 3.84012 44.1817Z" fill="#F26E50"/>
<path d="M22.001 32C22.2408 32.27 26.849 28.8878 27.1217 28.651L30.2248 25.9559C31.6119 24.7512 32.3276 23.0061 32.1883 21.1682C31.9732 18.3303 29.6677 16.0562 26.8253 15.8785C25.2186 15.7784 23.6571 16.3474 22.4997 17.4472C21.3423 16.3475 19.7807 15.7781 18.1741 15.8785C15.3317 16.0562 13.0262 18.3303 12.8111 21.1682C12.6718 23.0061 13.3875 24.7512 14.7745 25.9559L21.562 31.8506C21.8293 32.0828 22.1644 32.1989 22.4997 32.1988C22.8348 32.1988 23.1701 32.0827 23.4374 31.8506L24.7381 30.721C25.0106 30.4843 28.7294 26.7794 28.501 26.5C28.2646 26.2108 24.1743 29.4645 23.8943 29.7076L22.5729 30.8552C22.5312 30.8914 22.4682 30.8915 22.4265 30.8552L15.6391 24.9605C14.5698 24.0318 14.0182 22.6859 14.1256 21.2678C14.2913 19.0823 16.0671 17.3311 18.2562 17.1943C19.5658 17.1127 20.8356 17.6068 21.74 18.5506C21.9381 18.7574 22.2149 18.876 22.4997 18.876C22.7845 18.876 23.0613 18.7574 23.2594 18.5506C24.1637 17.6068 25.4335 17.1122 26.7431 17.1943C28.9323 17.3311 30.7081 19.0822 30.8737 21.2678C30.9812 22.6859 30.4296 24.0318 29.3603 24.9605L26.2572 27.6554C25.9802 27.8962 21.7573 31.7257 22.001 32Z" fill="#F26E50"/>
</svg>
