<svg width="45" height="48" viewBox="0 0 45 48" fill="none" xmlns="http://www.w3.org/2000/svg">
<path d="M43.8312 21.7332H39.8346L40.5338 21.3295C41.3174 20.8767 41.5869 19.8702 41.1345 19.0858L34.7221 7.97992C34.5284 7.64439 34.0993 7.52974 33.764 7.72322C33.4286 7.91689 33.3137 8.34585 33.5074 8.68129L39.9195 19.7869C39.9857 19.9017 39.9464 20.0489 39.8322 20.1149L37.0294 21.7333H28.9227L23.326 12.0387C22.9616 11.405 22.1488 11.1863 21.5135 11.5517L9.61318 18.4226C8.97971 18.7889 8.76191 19.6022 9.12784 20.2351L9.99266 21.7334H7.12427L5.08068 18.1939C5.01447 18.0791 5.05375 17.9319 5.16793 17.8659L30.1905 3.41853C30.3057 3.35195 30.4531 3.39132 30.5195 3.50625L31.867 5.83945C32.0608 6.1748 32.4895 6.28963 32.8252 6.09606C33.1606 5.90229 33.2754 5.47334 33.0817 5.1379L31.7343 2.80498C31.2825 2.02169 30.2764 1.75125 29.4903 2.20302L14.7609 10.7075L22.6606 1.20989C22.9082 0.91204 22.8677 0.4699 22.5698 0.222178C22.2721 -0.0254503 21.8298 0.0151353 21.5821 0.312888L11.2505 12.7342L4.46629 16.6513C3.68272 17.1041 3.41321 18.1106 3.86573 18.895L5.50449 21.7333H1.16894C0.52434 21.7333 0 22.2576 0 22.9022V26.186C0 26.8306 0.52434 27.355 1.16894 27.355H2.9246L4.05931 33.9142C4.11841 34.2555 4.41476 34.4962 4.74964 34.4962C4.78938 34.4962 4.8295 34.4928 4.86999 34.4859C5.25172 34.4199 5.50758 34.0568 5.44156 33.6752L4.34827 27.3551H40.6516L37.367 46.3433C37.3476 46.4557 37.2508 46.5373 37.1367 46.5373H7.86332C7.74923 46.5373 7.65245 46.4557 7.63299 46.3433L6.0005 36.9064C5.93448 36.5247 5.57136 36.2699 5.18982 36.3349C4.80809 36.4009 4.55223 36.7639 4.61825 37.1455L6.25075 46.5824C6.38681 47.369 7.06498 47.9399 7.86332 47.9399H37.1368C37.9351 47.9399 38.6133 47.369 38.7494 46.5823L42.0753 27.3549H43.8311C44.4757 27.3549 45 26.8305 45 26.1859V22.9021C45.0001 22.2576 44.4757 21.7332 43.8312 21.7332ZM10.3804 19.5993L22.1485 12.8047L27.303 21.7333H11.6121L10.3804 19.5993ZM43.5974 25.9522H1.40273V23.1359H43.5974V25.9522Z" fill="#78D2F6"/>
</svg>
