<svg width="29" height="30" viewBox="0 0 29 30" fill="none" xmlns="http://www.w3.org/2000/svg">
<path d="M3.67644 7.99751C3.7878 7.99751 3.89921 7.95512 3.98422 7.87029L11 0.868602H17.2828C17.5233 0.868602 17.7181 0.674151 17.7181 0.434301C17.7181 0.194451 17.5233 0 17.2828 0H10.8197C10.7043 0 10.5936 0.0457464 10.5119 0.127221L3.36866 7.25613C3.1987 7.42574 3.19876 7.70074 3.36866 7.87035C3.45373 7.95512 3.56509 7.99751 3.67644 7.99751Z" fill="#6DBE4F"/>
<path d="M28.1035 15.4155C28.1041 15.1851 27.8992 14.9851 27.6687 14.9889H21.3971V10.745C21.3971 10.7415 21.3967 10.7382 21.3966 10.7348L27.9764 4.16871C28.058 4.08729 28.1039 3.97681 28.1039 3.86163V0.434356C28.1079 0.201165 27.9026 -0.00382556 27.6688 5.41955e-05H19.3146C19.0741 5.41955e-05 18.8793 0.194505 18.8793 0.434356C18.8793 0.674206 19.0741 0.868657 19.3146 0.868657H26.6181L17.1033 10.3636H1.4861L2.5487 9.3036C2.71873 9.13399 2.71873 8.85905 2.54882 8.68944C2.37886 8.51977 2.10334 8.51972 1.93338 8.68932L0.127545 10.4908C0.0467706 10.5713 0 10.684 0 10.7979V14.2254C0 14.4653 0.194858 14.6598 0.43521 14.6598H6.70687V18.9171C6.69655 18.9257 6.68645 18.9346 6.67676 18.9443L0.132188 25.4751C0.0507745 25.5541 0 25.6643 0 25.7866V29.2141C0 29.4539 0.194858 29.6484 0.43521 29.6484H17.2837C17.3979 29.6484 17.5109 29.6016 17.5916 29.521L23.1093 24.0154C23.2793 23.8458 23.2793 23.5708 23.1094 23.4012C22.9393 23.2316 22.6638 23.2316 22.4939 23.4012L17.719 28.1657V25.9665L27.2338 16.4715V18.6706L23.93 21.9681C23.7601 22.1377 23.7601 22.4127 23.9301 22.5822C24.1001 22.7518 24.3757 22.7518 24.5455 22.5822L27.9767 19.1576C28.0583 19.0761 28.1042 18.9656 28.1042 18.8505V15.423C28.1041 15.4204 28.1036 15.418 28.1035 15.4155ZM17.1033 25.3522H11.6275L21.1421 15.8575H26.6179L17.1033 25.3522ZM27.2335 1.48305V3.68177L17.7188 13.1765V10.9779L27.2335 1.48305ZM6.70682 20.1426V25.3522H1.48627L6.70682 20.1426ZM0.870362 26.2209H7.14203C7.38238 26.2209 7.57724 26.0264 7.57724 25.7866V14.2254C7.57724 13.9856 7.38238 13.7911 7.14203 13.7911H0.870362V11.2322H16.8484V13.7911H10.5767C10.3363 13.7911 10.1415 13.9856 10.1415 14.2254V20.374C10.1415 20.6138 10.3363 20.8083 10.5767 20.8083C10.8171 20.8083 11.0119 20.6138 11.0119 20.374V14.6598H17.2836C17.4064 14.6598 17.517 14.6089 17.5961 14.5274L20.5267 11.6029V15.2433L11.0119 24.7382V22.4007C11.0119 22.1609 10.8171 21.9664 10.5767 21.9664C10.3363 21.9664 10.1415 22.1609 10.1415 22.4007V25.7866C10.1415 26.0264 10.3363 26.2209 10.5767 26.2209H16.8484V28.7798H0.870362V26.2209Z" fill="#6DBE4F"/>
</svg>
