<svg width="45" height="42" viewBox="0 0 45 42" fill="none" xmlns="http://www.w3.org/2000/svg">
<path d="M41.3934 11.5806H40.3652V7.7356C40.3652 7.20166 39.9323 6.7688 39.3984 6.7688H31.7833C31.2493 6.7688 31.7767 8.70239 32.3106 8.70239H38.4316V32.5065H25.4632C24.6327 32.5065 23.9796 32.669 23.4668 32.9136V27.7734C23.4668 27.2395 21.5332 27.2395 21.5332 27.7734V32.9106C21.0065 32.6615 20.3497 32.5065 19.5368 32.5065H6.56842V8.70239H12.4103C12.9443 8.70239 13.5595 6.7688 13.0256 6.7688H5.60162C5.06769 6.7688 4.63482 7.20166 4.63482 7.7356V11.5806H3.60659C1.61789 11.5806 0 13.2008 0 15.1923V36.208C0 38.1995 1.61789 39.8197 3.60659 39.8197H18.4101C18.8002 40.8428 19.7906 41.5715 20.9479 41.5715H24.0521C25.2094 41.5715 26.1998 40.8428 26.5899 39.8197H41.3934C43.3821 39.8197 45 38.1995 45 36.208V15.1923C45 13.2008 43.3821 11.5806 41.3934 11.5806ZM43.0664 36.208C43.0664 37.1333 42.3159 37.8861 41.3934 37.8861H25.8006C25.2666 37.8861 24.8338 38.319 24.8338 38.8529C24.8338 39.2858 24.4832 39.6379 24.0521 39.6379H20.9479C20.5169 39.6379 20.1662 39.2858 20.1662 38.8529C20.1662 38.319 19.7334 37.8861 19.1994 37.8861H3.60659C2.68409 37.8861 1.93359 37.1333 1.93359 36.208V15.1923C1.93359 14.267 2.68409 13.5142 3.60659 13.5142H4.63482V33.4734C4.63482 34.0073 5.06769 34.4402 5.60162 34.4402H19.5368C21.3267 34.4402 21.5178 35.5572 21.5336 35.9032C21.547 36.4269 21.9755 36.8451 22.4999 36.845H22.5022C23.0262 36.8437 23.4531 36.4255 23.4664 35.903C23.4822 35.557 23.6733 34.4401 25.4632 34.4401H39.3984C39.9323 34.4401 40.3652 34.0072 40.3652 33.4733V13.5142H41.3934C42.3159 13.5142 43.0664 14.267 43.0664 15.1923V36.208Z" fill="#FAE64A"/>
<path d="M32.0137 25.1362H35.0567C35.5906 25.1362 36.0235 24.7034 36.0235 24.1694C36.0235 23.6355 35.5906 23.2026 35.0567 23.2026H32.0137C31.4797 23.2026 31.0469 23.6355 31.0469 24.1694C31.0469 24.7034 31.4797 25.1362 32.0137 25.1362Z" fill="#FAE64A"/>
<path d="M32.0137 29.6589H35.0567C35.5906 29.6589 36.0235 29.2261 36.0235 28.6921C36.0235 28.1582 35.5906 27.7253 35.0567 27.7253H32.0137C31.4797 27.7253 31.0469 28.1582 31.0469 28.6921C31.0469 29.2261 31.4797 29.6589 32.0137 29.6589Z" fill="#FAE64A"/>
<path d="M12.9893 23.2026H9.94629C9.41235 23.2026 8.97949 23.6355 8.97949 24.1694C8.97949 24.7034 9.41235 25.1362 9.94629 25.1362H12.9893C13.5233 25.1362 13.9561 24.7034 13.9561 24.1694C13.9561 23.6355 13.5233 23.2026 12.9893 23.2026Z" fill="#FAE64A"/>
<path d="M12.9893 27.7253H9.94629C9.41235 27.7253 8.97949 28.1582 8.97949 28.6921C8.97949 29.2261 9.41235 29.6589 9.94629 29.6589H12.9893C13.5233 29.6589 13.9561 29.2261 13.9561 28.6921C13.9561 28.1582 13.5233 27.7253 12.9893 27.7253Z" fill="#FAE64A"/>
<path d="M30.0384 3.52156C27.9758 1.48742 25.2454 0.390193 22.3465 0.429744C19.5355 0.468943 16.8875 1.5979 14.8901 3.60866C12.8931 5.61907 11.7802 8.27583 11.7563 11.0896C11.7258 14.6679 13.467 18.0167 16.4141 20.0475C17.1262 20.5382 17.5512 21.3534 17.5512 22.2283V23.3617C17.5512 26.0926 19.7709 28.3143 22.4992 28.3143C25.2275 28.3143 27.4472 26.0926 27.4472 23.3617V22.2286C27.4472 21.357 27.883 20.5343 28.6131 20.0278C31.5118 18.0162 33.2425 14.7099 33.2425 11.1834C33.2424 8.28022 32.1046 5.55922 30.0384 3.52156ZM25.5136 23.3618C25.5136 25.0265 24.1613 26.3808 22.4992 26.3808C20.8371 26.3808 19.4848 25.0265 19.4848 23.3618V22.2284C19.4848 22.0236 19.4712 21.8207 19.4448 21.6207H25.5545C25.5275 21.8209 25.5136 22.0239 25.5136 22.2286V23.3618ZM27.5107 18.4391C27.0197 18.7798 26.6065 19.2051 26.2856 19.6871H23.466V14.0536C23.466 13.4202 23.9802 12.9051 24.612 12.9051C25.146 12.9051 25.5788 12.4723 25.5788 11.9383C25.5788 11.4044 25.146 10.9715 24.612 10.9715C23.7949 10.9715 23.0511 11.2917 22.4992 11.8133C21.9473 11.2918 21.2035 10.9715 20.3864 10.9715C19.8525 10.9715 19.4196 11.4044 19.4196 11.9383C19.4196 12.4723 19.8525 12.9051 20.3864 12.9051C21.0183 12.9051 21.5324 13.4203 21.5324 14.0536V19.6871H18.7207C18.4038 19.2091 17.9959 18.7893 17.5114 18.4555C15.0934 16.7893 13.6648 14.0419 13.6899 11.1063C13.7304 6.35155 17.6258 2.42943 22.3735 2.36325C22.4157 2.36263 22.4578 2.36237 22.4999 2.36237C24.8288 2.36237 27.0194 3.26009 28.6807 4.89837C30.3754 6.56978 31.3088 8.80177 31.3088 11.1833C31.3088 14.0763 29.889 16.7887 27.5107 18.4391Z" fill="#FAE64A"/>
</svg>
