<svg width="33" height="33" viewBox="0 0 33 33" fill="none" xmlns="http://www.w3.org/2000/svg">
<path d="M26.0694 15.7923C25.8752 15.3501 25.5015 15.0054 25.0442 14.8465C24.5847 14.6869 24.0749 14.7262 23.6455 14.9543C21.2046 16.2512 18.2308 16.1537 15.8843 14.6999C14.155 13.6283 12.174 13.1748 10.1554 13.3888C8.77413 13.5351 7.56042 14.4067 6.98775 15.6636C6.37126 17.0169 6.05859 18.4693 6.05859 19.9806C6.05859 25.7379 10.7425 30.4218 16.4998 30.4218C22.2571 30.4218 26.941 25.7379 26.941 19.9806C26.941 18.5184 26.6478 17.1093 26.0694 15.7923ZM16.4998 29.1327C11.4533 29.1327 7.34766 25.0271 7.34766 19.9806C7.34766 18.655 7.62126 17.3823 8.1608 16.198C8.54513 15.3544 9.36143 14.7691 10.2911 14.6707C10.5701 14.6411 10.8482 14.6264 11.1247 14.6264C12.5644 14.6264 13.9608 15.0244 15.2054 15.7956C17.9402 17.4901 21.406 17.6039 24.2503 16.0927C24.3659 16.0314 24.4976 16.0212 24.6213 16.0642C24.7428 16.1064 24.8379 16.1939 24.8892 16.3106C25.3954 17.4633 25.652 18.6981 25.652 19.9806C25.652 25.0271 21.5463 29.1327 16.4998 29.1327Z" fill="#6DBE4F"/>
<path d="M20.6336 14.433C21.2602 14.433 21.7682 13.925 21.7682 13.2984C21.7682 12.6718 21.2602 12.1638 20.6336 12.1638C20.007 12.1638 19.499 12.6718 19.499 13.2984C19.499 13.925 20.007 14.433 20.6336 14.433Z" fill="#6DBE4F"/>
<path d="M17.4876 11.5538C17.8885 11.5538 18.2135 11.2288 18.2135 10.8279C18.2135 10.427 17.8885 10.1021 17.4876 10.1021C17.0867 10.1021 16.7617 10.427 16.7617 10.8279C16.7617 11.2288 17.0867 11.5538 17.4876 11.5538Z" fill="#6DBE4F"/>
<path d="M26.8423 12.0717C25.2469 9.98843 23.0249 8.41487 20.5456 7.60276V4.50843H20.685C21.928 4.50843 22.9393 3.49723 22.9393 2.25418C22.9393 1.01114 21.928 0 20.685 0H12.3146C11.0716 0 10.0604 1.01121 10.0604 2.25425C10.0604 3.49729 11.0716 4.5085 12.3146 4.5085H12.454V7.60283C9.97477 8.415 7.75281 9.98856 6.15734 12.0717C4.40614 14.3585 3.48047 17.0934 3.48047 19.9807C3.48047 27.1596 9.32095 33 16.4998 33C23.6787 33 29.5191 27.1596 29.5191 19.9807C29.5191 17.0933 28.5935 14.3584 26.8423 12.0717ZM11.3494 2.25425C11.3494 1.72206 11.7824 1.28906 12.3146 1.28906H20.685C21.2172 1.28906 21.6502 1.72206 21.6502 2.25425C21.6502 2.78644 21.2172 3.21943 20.685 3.21943H12.3146C11.7824 3.21937 11.3494 2.78637 11.3494 2.25425ZM16.4998 31.7109C10.0317 31.7109 4.76953 26.4487 4.76953 19.9807C4.76953 17.3791 5.60336 14.9153 7.18079 12.8555C8.70865 10.8605 10.873 9.38444 13.2753 8.69911C13.5522 8.62015 13.7431 8.36718 13.7431 8.07933V4.50843H19.2565V8.07926C19.2565 8.36711 19.4474 8.62009 19.7243 8.69904C22.1266 9.38431 24.291 10.8604 25.8188 12.8554C27.3963 14.9152 28.2301 17.3791 28.2301 19.9806C28.2301 26.4487 22.9679 31.7109 16.4998 31.7109Z" fill="#6DBE4F"/>
<path d="M11.9199 20.8694C11.3611 20.6633 10.84 20.4391 10.6685 20.3641C10.5741 20.2831 10.5776 20.1731 10.5843 20.1265C10.5943 20.0569 10.6459 19.8863 10.9082 19.8073C11.5269 19.621 12.1071 20.0757 12.1259 20.0908C12.3984 20.3164 12.8023 20.2803 13.0303 20.009C13.2594 19.7365 13.2242 19.33 12.9517 19.101C12.9069 19.0632 11.8374 18.1812 10.5364 18.573C9.8715 18.7733 9.40092 19.2984 9.30831 19.9434C9.22117 20.5501 9.4842 21.1337 9.9948 21.4666C10.0233 21.4852 10.0532 21.5015 10.0843 21.5153C10.1111 21.5274 10.7521 21.8126 11.4738 22.0788C11.6207 22.133 12.0956 22.3335 12.0411 22.6388C11.9995 22.8721 11.7086 23.1134 11.2939 23.1134C10.8505 23.1134 10.4246 22.9353 10.1544 22.6372C9.91533 22.3734 9.50772 22.3533 9.24398 22.5924C8.98017 22.8314 8.96013 23.239 9.19919 23.5028C9.71732 24.0745 10.4808 24.4024 11.2939 24.4024C12.3032 24.4024 13.1511 23.756 13.3101 22.8654C13.4303 22.1928 13.1282 21.3151 11.9199 20.8694Z" fill="#6DBE4F"/>
<path d="M22.2519 24.3633H21.5182C21.694 24.1141 21.912 23.8048 22.1821 23.4214C22.4676 23.016 22.7318 22.5702 22.7318 22.0568C22.7318 21.1687 21.9815 20.4185 21.0935 20.4185C20.3124 20.4185 19.6363 20.9742 19.4858 21.7399C19.4173 22.0892 19.6447 22.428 19.994 22.4966C20.3432 22.5653 20.6821 22.3377 20.7507 21.9884C20.7827 21.8257 20.9268 21.7075 21.0935 21.7075C21.287 21.7075 21.4428 21.8986 21.4428 22.0568C21.4428 22.2325 21.206 22.5686 21.1282 22.679C19.9046 24.4162 19.7561 24.6222 19.7507 24.6297C19.6086 24.8258 19.5884 25.0851 19.6986 25.3008C19.8087 25.5166 20.0305 25.6524 20.2727 25.6524H22.2519C22.6079 25.6524 22.8964 25.3638 22.8964 25.0078C22.8964 24.6519 22.6079 24.3633 22.2519 24.3633Z" fill="#6DBE4F"/>
<path d="M16.373 18.4729C14.7383 18.4729 13.4082 19.803 13.4082 21.4377C13.4082 23.0725 14.7383 24.4026 16.373 24.4026C18.0078 24.4026 19.3379 23.0725 19.3379 21.4377C19.3379 19.803 18.0078 18.4729 16.373 18.4729ZM16.373 23.1135C15.449 23.1135 14.6973 22.3617 14.6973 21.4377C14.6973 20.5137 15.449 19.762 16.373 19.762C17.297 19.762 18.0488 20.5137 18.0488 21.4377C18.0488 22.3617 17.297 23.1135 16.373 23.1135Z" fill="#6DBE4F"/>
</svg>
