<svg width="20" height="20" viewBox="0 0 20 20" fill="none" xmlns="http://www.w3.org/2000/svg">
<path d="M13.9286 9H11.7857V7.85714C11.7857 7.48306 11.8437 7.32654 11.9111 7.24996C11.9666 7.1869 12.1265 7.07143 12.6429 7.07143H14.0714H14.5714V6.57143V4.07143V3.61894L14.1212 3.57391C13.382 3.5 12.718 3.5 12.0104 3.5H12C10.8607 3.5 9.84996 3.85529 9.12225 4.57245C8.39288 5.29125 8 6.3222 8 7.57143V9.07143H6.14286H5.64286V9.57143V12.2857V12.7857H6.14286H8V19.3232C3.67264 18.3529 0.5 14.548 0.5 10C0.5 4.77614 4.77614 0.5 10 0.5C15.2239 0.5 19.5 4.77614 19.5 10C19.5 14.6915 16.1227 18.5672 11.7143 19.3502V12.7143H13.5714H14.0099L14.0672 12.2795L14.4243 9.56523L14.4987 9H13.9286Z" stroke="black"/>
</svg>
