<svg width="38" height="32" viewBox="0 0 38 32" fill="none" xmlns="http://www.w3.org/2000/svg">
<path d="M36.7525 3.7505L35.1887 2.1971C34.832 1.84278 34.2657 1.83491 33.8995 2.17928L33.7495 2.3203L31.6575 0.168625C31.4433 -0.0518049 31.0909 -0.0567777 30.8704 0.157566C30.65 0.37191 30.6451 0.7243 30.8594 0.944656L32.9383 3.08282L32.8151 3.19861C32.6326 3.3702 32.526 3.61223 32.5228 3.86264C32.5195 4.11305 32.6198 4.35775 32.7979 4.53395L33.8771 5.60211L32.9218 6.41213C32.6116 6.67516 32.4337 7.05932 32.4337 7.46603C32.4337 8.22796 33.0536 8.84784 33.8155 8.84784H34.6602V10.1152C34.6602 10.8558 35.1217 11.4877 35.7734 11.7207V27.9592C35.7734 28.2661 35.5238 28.5158 35.2168 28.5158C34.9098 28.5158 34.6602 28.2661 34.6602 27.9592V24.6193C34.6602 23.6985 33.911 22.9494 32.9902 22.9494H30.9492V6.21307C30.9492 5.29224 30.2001 4.54315 29.2793 4.54315H28.5672L28.2056 3.45837C27.9779 2.77541 27.3413 2.31659 26.6214 2.31659H19.8395C19.1196 2.31659 18.4829 2.77548 18.2552 3.45845L17.8936 4.54315H17.1816C16.2608 4.54315 15.5117 5.29224 15.5117 6.21307V15.2106L12.7599 14.2179C12.5351 14.1368 12.2908 14.1452 12.0719 14.2413L10.0693 15.1215L7.5646 14.2179C7.33979 14.1368 7.09546 14.1452 6.87659 14.2413L3.72675 15.6256C3.54216 15.7068 3.3866 15.8486 3.28871 16.025L2.45323 17.5314H1.00195C0.449469 17.5314 0 17.9809 0 18.5334V19.8693C0 20.4158 0.439895 20.8607 0.984066 20.8704L2.21565 27.5211C2.36223 28.3125 3.05277 28.8869 3.85767 28.8869H4.13807C4.39672 30.1556 5.52121 31.1132 6.86523 31.1132C8.20926 31.1132 9.33368 30.1557 9.5924 28.8869H10.8178C11.0764 30.1556 12.2009 31.1132 13.5449 31.1132C13.8739 31.1132 14.1896 31.0555 14.4828 30.9502C14.6342 31.0542 14.8161 31.1135 15.0078 31.1135H31.4531C31.998 31.126 32.457 30.6015 32.3727 30.0631L32.2607 29.2229C32.166 28.5133 31.6274 27.9548 30.9492 27.811V24.0627H32.9902C33.2972 24.0627 33.5469 24.3124 33.5469 24.6193V27.9592C33.5469 28.88 34.296 29.6291 35.2168 29.6291C36.1376 29.6291 36.8867 28.88 36.8867 27.9592V11.7204C37.1059 11.643 37.3088 11.521 37.4826 11.3551C37.8114 11.0414 38 10.601 38 10.1467V6.76563C38 5.62808 37.5577 4.558 36.7525 3.7505ZM24.9486 27.7736L29.8359 24.5691V27.7737L24.9486 27.7736ZM19.4261 20.8704C19.9703 20.8607 20.4102 20.4158 20.4102 19.8693V18.5334C20.4102 17.9809 19.9607 17.5314 19.4082 17.5314H18.1091L23.4291 14.0432H27.7949C28.3065 14.0432 28.7227 13.627 28.7227 13.1154V10.5722L29.8359 9.84222V23.2377L22.9182 27.7735H18.1257C18.1545 27.6921 18.1782 27.6081 18.1944 27.521L19.4261 20.8704ZM18.8516 12.9299V7.883H27.6094V12.9299H18.8516ZM16.625 6.21307C16.625 5.9061 16.8747 5.65643 17.1816 5.65643H23.7533C24.0608 5.65643 24.31 5.40721 24.31 5.09979C24.31 4.79238 24.0608 4.54315 23.7533 4.54315H19.0672L19.3115 3.81046C19.3873 3.58284 19.5996 3.42987 19.8396 3.42987H26.6214C26.8614 3.42987 27.0737 3.58284 27.1495 3.81046L27.3938 4.54315H26.351C26.0435 4.54315 25.7944 4.79238 25.7944 5.09979C25.7944 5.40721 26.0435 5.65643 26.351 5.65643H29.2793C29.5863 5.65643 29.8359 5.9061 29.8359 6.21307V8.51103L28.7227 9.24098V7.69745C28.7227 7.18586 28.3065 6.76971 27.7949 6.76971H18.666C18.1544 6.76971 17.7383 7.18586 17.7383 7.69745V13.1154C17.7383 13.627 18.1544 14.0432 18.666 14.0432H21.3988L17.456 16.6283L17.1284 16.0375C17.0195 15.8411 16.8431 15.6909 16.6318 15.6146L16.625 15.6122V6.21307ZM12.452 15.2904L16.1885 16.6383L16.6839 17.5315H8.92161L9.42727 16.6197L12.452 15.2904ZM4.23195 16.6197L7.25666 15.2903L8.66252 15.7975C8.59186 15.8634 8.53115 15.94 8.48402 16.0249L7.64854 17.5314H3.7263L4.23195 16.6197ZM3.31038 27.3184L2.1165 20.8714H3.46468C3.77209 20.8714 4.02132 20.6221 4.02132 20.3147C4.02132 20.0073 3.77209 19.7581 3.46468 19.7581H1.11328V18.6448H19.2969V19.7581H6.06234C5.75492 19.7581 5.5057 20.0073 5.5057 20.3147C5.5057 20.6221 5.75492 20.8714 6.06234 20.8714H18.2937L17.0999 27.3184C17.051 27.5822 16.8208 27.7737 16.5525 27.7737H16.2722C16.0137 26.5047 14.8891 25.5469 13.5449 25.5469C12.2007 25.5469 11.0762 26.5048 10.8177 27.7737H9.59248C9.33397 26.5047 8.20941 25.5469 6.86523 25.5469C5.52106 25.5469 4.3965 26.5048 4.13799 27.7737H3.85767C3.58937 27.7736 3.35921 27.5821 3.31038 27.3184ZM6.86523 30C5.9444 30 5.19531 29.2509 5.19531 28.33C5.19531 27.4092 5.9444 26.6601 6.86523 26.6601C7.78607 26.6601 8.53516 27.4092 8.53516 28.33C8.53516 29.2509 7.78607 30 6.86523 30ZM11.875 28.33C11.875 27.4092 12.6241 26.6601 13.5449 26.6601C14.4658 26.6601 15.2148 27.4092 15.2148 28.33C15.2148 29.2509 14.4658 30 13.5449 30C12.6241 30 11.875 29.2509 11.875 28.33ZM31.1571 29.37L31.2412 30.0002H15.7698C16.0134 29.6764 16.1882 29.298 16.2721 28.8869H16.5525H30.6054C30.8832 28.8869 31.1204 29.0946 31.1571 29.37ZM33.8154 7.73456C33.5718 7.74213 33.452 7.41245 33.6417 7.26119L34.5782 6.4672C34.6312 6.61007 34.6602 6.76214 34.6602 6.91897V7.73456H33.8154ZM36.8867 10.1467C36.893 10.4566 36.6131 10.7239 36.3024 10.7026C36.0107 10.6889 35.7734 10.4254 35.7734 10.1152V6.91897C35.7734 6.27601 35.5235 5.6712 35.0668 5.21327L33.7176 3.878L34.5312 3.11325L35.966 4.53848C36.5597 5.13386 36.8866 5.92488 36.8866 6.76563V10.1467H36.8867Z" fill="#6DBE4F"/>
<path d="M24.9746 18.4963H27.7949C28.3065 18.4963 28.7227 18.0802 28.7227 17.5686V16.0842C28.7227 15.5726 28.3065 15.1565 27.7949 15.1565H24.9746C24.463 15.1565 24.0469 15.5726 24.0469 16.0842V17.5686C24.0469 18.0802 24.463 18.4963 24.9746 18.4963ZM25.1602 16.2698H27.6094V17.3831H25.1602V16.2698Z" fill="#6DBE4F"/>
<path d="M8.3118 12.9299C5.4733 12.9299 3.16406 10.6206 3.16406 7.78212C3.16406 6.8716 3.3548 5.98959 3.73109 5.16049L4.10798 4.33006C4.26925 3.97455 4.62498 3.76199 5.01463 3.78833C5.40413 3.81468 5.72802 4.07341 5.84002 4.44732L6.32007 6.05082L7.43587 2.24087C7.55269 1.84202 7.90998 1.57446 8.32531 1.57446H8.32746C8.74375 1.57543 9.10082 1.84484 9.21608 2.24488L10.308 6.03605L10.7837 4.44732C10.8956 4.07341 11.2195 3.81476 11.609 3.78833C11.9974 3.76251 12.3543 3.97462 12.5157 4.33006L12.8926 5.16049C13.2689 5.98959 13.4596 6.87168 13.4596 7.78219C13.4595 10.6206 11.1503 12.9299 8.3118 12.9299ZM4.74485 5.6205C4.43461 6.30413 4.27734 7.0314 4.27734 7.78212C4.27734 10.0068 6.08724 11.8166 8.3118 11.8166C10.5364 11.8166 12.3463 10.0067 12.3463 7.78212C12.3463 7.0314 12.1889 6.30413 11.8788 5.6205L11.7075 5.2431L11.3371 6.4801C11.1996 6.93937 10.7863 7.24678 10.3075 7.24678C10.3055 7.24678 10.3036 7.24678 10.3016 7.24678C9.8203 7.24426 9.40742 6.93187 9.2742 6.46934L8.32375 3.1695L7.352 6.48774C7.21707 6.94857 6.80375 7.25917 6.32355 7.26066C6.32244 7.26066 6.32133 7.26066 6.32021 7.26066C5.84143 7.26066 5.42796 6.95295 5.2905 6.4939L4.91607 5.24302L4.74485 5.6205Z" fill="#6DBE4F"/>
</svg>
