<svg width="727" height="170" viewBox="0 0 727 170" fill="none" xmlns="http://www.w3.org/2000/svg">
<path d="M52.6719 75H40.875V51.25H15.4844V75H3.6875V18.6328H15.4844V41.5234H40.875V18.6328H52.6719V75ZM79.8594 40.6641C74.8594 40.6641 71.2656 44.4531 70.875 49.6875H88.6484C88.4141 44.3359 84.9375 40.6641 79.8594 40.6641ZM88.8047 62.1875H99.2734C98.0234 70.3906 90.5234 75.8984 80.1719 75.8984C67.2812 75.8984 59.5469 67.6562 59.5469 54.2578C59.5469 40.8984 67.3594 32.2266 79.7422 32.2266C91.9297 32.2266 99.625 40.4688 99.625 53.2031V56.6797H70.7578V57.3828C70.7578 63.3594 74.5469 67.4609 80.3672 67.4609C84.5469 67.4609 87.75 65.3906 88.8047 62.1875ZM110.25 90.5078C109.859 90.5078 106.305 90.4688 105.953 90.3906V81.6016C106.305 81.6797 108.375 81.6797 108.805 81.6797C112.984 81.6797 115.055 80.3516 115.836 77.0312C115.836 76.875 116.266 75.1953 116.188 75.0391L101.617 33.125H114.156L123.062 65.8594H123.258L132.164 33.125H144.195L129.781 75.9375C126.188 86.6797 120.953 90.5078 110.25 90.5078ZM167.242 23.4766H178.648V33.125H186.383V41.7188H178.648V61.7578C178.648 64.9609 180.211 66.4844 183.57 66.4844C184.586 66.4844 185.641 66.4062 186.344 66.2891V74.6875C185.172 74.9609 183.219 75.1562 180.914 75.1562C171.07 75.1562 167.242 71.875 167.242 63.7109V41.7188H161.344V33.125H167.242V23.4766ZM192.906 75V18.6328H204.117V40.5859H204.352C206.578 35.3125 211.148 32.3438 217.516 32.3438C226.812 32.3438 232.125 38.3594 232.125 48.0469V75H220.719V50.4688C220.719 45.0781 218.062 41.7969 212.867 41.7969C207.477 41.7969 204.312 45.5859 204.312 51.0938V75H192.906ZM258.219 40.6641C253.219 40.6641 249.625 44.4531 249.234 49.6875H267.008C266.773 44.3359 263.297 40.6641 258.219 40.6641ZM267.164 62.1875H277.633C276.383 70.3906 268.883 75.8984 258.531 75.8984C245.641 75.8984 237.906 67.6562 237.906 54.2578C237.906 40.8984 245.719 32.2266 258.102 32.2266C270.289 32.2266 277.984 40.4688 277.984 53.2031V56.6797H249.117V57.3828C249.117 63.3594 252.906 67.4609 258.727 67.4609C262.906 67.4609 266.109 65.3906 267.164 62.1875ZM283.883 75V33.125H294.898V40.6641H295.133C296.617 35.3516 300.172 32.4609 305.094 32.4609C306.422 32.4609 307.555 32.6562 308.336 32.8906V42.9297C307.398 42.5391 305.836 42.2656 304.195 42.2656C298.57 42.2656 295.289 45.7031 295.289 51.6016V75H283.883ZM330.406 40.6641C325.406 40.6641 321.812 44.4531 321.422 49.6875H339.195C338.961 44.3359 335.484 40.6641 330.406 40.6641ZM339.352 62.1875H349.82C348.57 70.3906 341.07 75.8984 330.719 75.8984C317.828 75.8984 310.094 67.6562 310.094 54.2578C310.094 40.8984 317.906 32.2266 330.289 32.2266C342.477 32.2266 350.172 40.4688 350.172 53.2031V56.6797H321.305V57.3828C321.305 63.3594 325.094 67.4609 330.914 67.4609C335.094 67.4609 338.297 65.3906 339.352 62.1875ZM368.219 80.6H448.219V0.599999H368.219V80.6ZM37.4375 130.484L26.7344 169H15.6016L0.679688 112.633H12.9062L21.7734 153.453H22.0859L32.6328 112.633H42.5938L53.1406 153.453H53.4531L62.3594 112.633H74.5859L59.625 169H48.4922L37.7891 130.484H37.4375ZM94.0781 134.664C89.0781 134.664 85.4844 138.453 85.0938 143.688H102.867C102.633 138.336 99.1562 134.664 94.0781 134.664ZM103.023 156.188H113.492C112.242 164.391 104.742 169.898 94.3906 169.898C81.5 169.898 73.7656 161.656 73.7656 148.258C73.7656 134.898 81.5781 126.227 93.9609 126.227C106.148 126.227 113.844 134.469 113.844 147.203V150.68H84.9766V151.383C84.9766 157.359 88.7656 161.461 94.5859 161.461C98.7656 161.461 101.969 159.391 103.023 156.188ZM120.016 169V112.633H131.422V169H120.016ZM177.164 142.711H166.578C165.914 138.297 162.984 135.172 158.297 135.172C152.672 135.172 149.156 139.938 149.156 148.023C149.156 156.266 152.672 160.953 158.336 160.953C162.906 160.953 165.875 158.219 166.578 153.648H177.203C176.617 163.531 169.234 169.898 158.219 169.898C145.602 169.898 137.594 161.695 137.594 148.023C137.594 134.586 145.602 126.227 158.141 126.227C169.469 126.227 176.656 133.219 177.164 142.711ZM201.93 169.898C189.273 169.898 181.188 161.773 181.188 148.023C181.188 134.469 189.391 126.227 201.93 126.227C214.469 126.227 222.672 134.43 222.672 148.023C222.672 161.812 214.586 169.898 201.93 169.898ZM201.93 161.188C207.516 161.188 211.07 156.461 211.07 148.062C211.07 139.742 207.477 134.938 201.93 134.938C196.383 134.938 192.75 139.742 192.75 148.062C192.75 156.461 196.305 161.188 201.93 161.188ZM228.57 169V127.125H239.586V134.703H239.82C241.578 129.664 246.07 126.344 251.773 126.344C257.828 126.344 262.047 129.469 263.453 134.938H263.688C265.562 129.664 270.562 126.344 276.695 126.344C284.898 126.344 290.406 131.969 290.406 140.406V169H279V143.258C279 138.414 276.578 135.758 272.164 135.758C267.828 135.758 264.977 138.922 264.977 143.57V169H254V142.906C254 138.414 251.461 135.758 247.242 135.758C242.906 135.758 239.977 139.039 239.977 143.727V169H228.57ZM316.422 134.664C311.422 134.664 307.828 138.453 307.438 143.688H325.211C324.977 138.336 321.5 134.664 316.422 134.664ZM325.367 156.188H335.836C334.586 164.391 327.086 169.898 316.734 169.898C303.844 169.898 296.109 161.656 296.109 148.258C296.109 134.898 303.922 126.227 316.305 126.227C328.492 126.227 336.188 134.469 336.188 147.203V150.68H307.32V151.383C307.32 157.359 311.109 161.461 316.93 161.461C321.109 161.461 324.312 159.391 325.367 156.188ZM360.992 117.477H372.398V127.125H380.133V135.719H372.398V155.758C372.398 158.961 373.961 160.484 377.32 160.484C378.336 160.484 379.391 160.406 380.094 160.289V168.688C378.922 168.961 376.969 169.156 374.664 169.156C364.82 169.156 360.992 165.875 360.992 157.711V135.719H355.094V127.125H360.992V117.477ZM404.977 169.898C392.32 169.898 384.234 161.773 384.234 148.023C384.234 134.469 392.438 126.227 404.977 126.227C417.516 126.227 425.719 134.43 425.719 148.023C425.719 161.812 417.633 169.898 404.977 169.898ZM404.977 161.188C410.562 161.188 414.117 156.461 414.117 148.062C414.117 139.742 410.523 134.938 404.977 134.938C399.43 134.938 395.797 139.742 395.797 148.062C395.797 156.461 399.352 161.188 404.977 161.188ZM447.242 169V161.305L475.875 122.672V122.359H447.906V112.633H489.977V120.289L461.461 158.961V159.234H490.758V169H447.242ZM514.117 161.422C519.078 161.422 523.18 158.18 523.18 153.648V150.602L514.352 151.148C510.094 151.461 507.672 153.375 507.672 156.344C507.672 159.469 510.25 161.422 514.117 161.422ZM510.367 169.664C502.398 169.664 496.344 164.508 496.344 156.969C496.344 149.352 502.203 144.938 512.633 144.312L523.18 143.688V140.914C523.18 137.008 520.445 134.742 516.148 134.742C511.891 134.742 509.195 136.852 508.648 139.938H498.219C498.648 131.812 505.562 126.227 516.656 126.227C527.398 126.227 534.391 131.773 534.391 140.211V169H523.375V162.594H523.141C520.797 167.047 515.602 169.664 510.367 169.664ZM542.047 169V112.633H553.453V169H542.047ZM580.367 169.898C567.711 169.898 559.625 161.773 559.625 148.023C559.625 134.469 567.828 126.227 580.367 126.227C592.906 126.227 601.109 134.43 601.109 148.023C601.109 161.812 593.023 169.898 580.367 169.898ZM580.367 161.188C585.953 161.188 589.508 156.461 589.508 148.062C589.508 139.742 585.914 134.938 580.367 134.938C574.82 134.938 571.188 139.742 571.188 148.062C571.188 156.461 574.742 161.188 580.367 161.188ZM607.008 169V127.125H618.023V134.703H618.258C620.016 129.664 624.508 126.344 630.211 126.344C636.266 126.344 640.484 129.469 641.891 134.938H642.125C644 129.664 649 126.344 655.133 126.344C663.336 126.344 668.844 131.969 668.844 140.406V169H657.438V143.258C657.438 138.414 655.016 135.758 650.602 135.758C646.266 135.758 643.414 138.922 643.414 143.57V169H632.438V142.906C632.438 138.414 629.898 135.758 625.68 135.758C621.344 135.758 618.414 139.039 618.414 143.727V169H607.008ZM676.266 169V127.125H687.672V169H676.266ZM681.969 122.516C678.531 122.516 675.875 119.898 675.875 116.617C675.875 113.297 678.531 110.719 681.969 110.719C685.406 110.719 688.062 113.297 688.062 116.617C688.062 119.898 685.406 122.516 681.969 122.516ZM714.234 112.633H725.953L725.016 150.445H715.172L714.234 112.633ZM720.094 169.977C716.539 169.977 713.727 167.281 713.727 163.844C713.727 160.406 716.539 157.711 720.094 157.711C723.648 157.711 726.461 160.406 726.461 163.844C726.461 167.281 723.648 169.977 720.094 169.977Z" fill="white"/>
</svg>
