<svg width="31" height="30" viewBox="0 0 31 30" fill="none" xmlns="http://www.w3.org/2000/svg">
<g clip-path="url(#clip0_5172_318)">
<path d="M29.8789 6.5625H1.75391C1.23617 6.5625 0.816406 6.98227 0.816406 7.5V22.5C0.816406 23.0177 1.23617 23.4375 1.75391 23.4375H29.8789C30.3966 23.4375 30.8164 23.0177 30.8164 22.5V7.5C30.8164 6.98227 30.3966 6.5625 29.8789 6.5625ZM28.9414 20.5625C28.9414 21.1148 28.4937 21.5625 27.9414 21.5625H3.69141C3.13912 21.5625 2.69141 21.1148 2.69141 20.5625V9.4375C2.69141 8.88522 3.13912 8.4375 3.69141 8.4375H27.9414C28.4937 8.4375 28.9414 8.88522 28.9414 9.4375V20.5625Z" fill="black"/>
<path d="M5.50391 19.6875H26.1289C26.6466 19.6875 27.0664 19.2677 27.0664 18.75V14.0625C27.0664 13.8138 26.9676 13.5754 26.7918 13.3996L23.9793 10.5871C23.8035 10.4113 23.5651 10.3125 23.3164 10.3125H8.31641C8.06773 10.3125 7.82932 10.4113 7.65348 10.5871L4.84098 13.3996C4.6652 13.5754 4.56641 13.8138 4.56641 14.0625V18.75C4.56641 19.2677 4.98617 19.6875 5.50391 19.6875ZM6.44141 14.4508L8.70471 12.1875H22.928L25.1914 14.4508V17.8125H6.44141V14.4508Z" fill="black"/>
<path d="M22.3789 14.0625H9.25391C8.73617 14.0625 8.31641 14.4823 8.31641 15C8.31641 15.5177 8.73617 15.9375 9.25391 15.9375H22.3789C22.8966 15.9375 23.3164 15.5177 23.3164 15C23.3164 14.4823 22.8966 14.0625 22.3789 14.0625Z" fill="black"/>
</g>
<defs>
<clipPath id="clip0_5172_318">
<rect width="30" height="30" fill="white" transform="translate(0.816406)"/>
</clipPath>
</defs>
</svg>
