<svg width="18" height="18" viewBox="0 0 18 18" fill="none" xmlns="http://www.w3.org/2000/svg">
<path d="M12.6472 1.2082H12.6457L5.3543 1.2082L5.3528 1.20821C4.2546 1.21149 3.20231 1.6492 2.42575 2.42575C1.6492 3.20231 1.21149 4.2546 1.2082 5.3528V5.3543L1.2082 12.6457L1.20821 12.6472C1.21149 13.7454 1.6492 14.7977 2.42575 15.5742C3.20231 16.3508 4.2546 16.7885 5.3528 16.7918H5.3543L12.6457 16.7918L12.6472 16.7918C13.7454 16.7885 14.7977 16.3508 15.5742 15.5742C16.3508 14.7977 16.7885 13.7454 16.7918 12.6472V12.6457L16.7918 5.3543L16.7918 5.3528C16.7885 4.2546 16.3508 3.20231 15.5742 2.42575C14.7977 1.6492 13.7454 1.21149 12.6472 1.2082ZM13.7405 4.8543H13.7395C13.622 4.8543 13.5072 4.81947 13.4096 4.75423C13.3119 4.68899 13.2358 4.59626 13.1909 4.48777C13.146 4.37927 13.1342 4.25989 13.1571 4.14471C13.18 4.02954 13.2366 3.92374 13.3196 3.8407C13.4026 3.75766 13.5084 3.70112 13.6236 3.67821C13.7388 3.6553 13.8582 3.66705 13.9667 3.71199C14.0752 3.75693 14.1679 3.83304 14.2331 3.93068C14.2984 4.02832 14.3332 4.14311 14.3332 4.26055L14.3332 4.26162C14.3334 4.3395 14.3182 4.41664 14.2884 4.48863C14.2587 4.56061 14.2151 4.62601 14.16 4.68108C14.1049 4.73615 14.0395 4.7798 13.9675 4.80952C13.8956 4.83925 13.8184 4.85447 13.7405 4.8543ZM9 5.5832L8.99946 5.5832C8.09371 5.58417 7.22534 5.94441 6.58487 6.58487C5.94441 7.22534 5.58417 8.09371 5.5832 8.99946V9C5.5832 9.67578 5.7836 10.3364 6.15904 10.8983C6.53448 11.4602 7.06811 11.8981 7.69245 12.1567C8.31679 12.4153 9.00379 12.483 9.66658 12.3511C10.3294 12.2193 10.9382 11.8939 11.416 11.416C11.8939 10.9382 12.2193 10.3294 12.3511 9.66658C12.483 9.00379 12.4153 8.31679 12.1567 7.69245C11.8981 7.06811 11.4602 6.53448 10.8983 6.15904C10.3364 5.7836 9.67578 5.5832 9 5.5832ZM5.3543 0.75H12.6457C15.177 0.75 17.25 2.82302 17.25 5.3543V12.6457C17.25 15.177 15.177 17.25 12.6457 17.25H5.3543C2.82302 17.25 0.75 15.177 0.75 12.6457V5.3543C0.75 2.82302 2.82302 0.75 5.3543 0.75ZM6.84717 5.77805C7.48441 5.35226 8.2336 5.125 9 5.125C10.0277 5.125 11.0133 5.53326 11.74 6.25996C12.4667 6.98666 12.875 7.97229 12.875 9C12.875 9.7664 12.6477 10.5156 12.2219 11.1528C11.7962 11.7901 11.191 12.2867 10.4829 12.58C9.77483 12.8733 8.9957 12.9501 8.24403 12.8005C7.49235 12.651 6.80189 12.282 6.25996 11.74C5.71803 11.1981 5.34897 10.5077 5.19946 9.75597C5.04994 9.0043 5.12668 8.22517 5.41997 7.5171C5.71326 6.80904 6.20993 6.20385 6.84717 5.77805Z" stroke="black"/>
</svg>
