<svg width="31" height="30" viewBox="0 0 31 30" fill="none" xmlns="http://www.w3.org/2000/svg">
<path d="M26.75 6.5625H4.25C2.18656 6.5625 1.4375 8.24437 1.4375 9.375V20.625C1.4375 22.6884 3.11937 23.4375 4.25 23.4375H26.75C28.8134 23.4375 29.5625 21.7556 29.5625 20.625V9.375C29.5625 7.31156 27.8806 6.5625 26.75 6.5625ZM27.6875 20.6138C27.6763 21.0469 27.5056 21.5625 26.75 21.5625H4.26125C3.82812 21.5513 3.3125 21.3806 3.3125 20.625V9.38625C3.32375 8.95312 3.49531 8.4375 4.25 8.4375H26.7388C27.1719 8.44875 27.6875 8.62031 27.6875 9.375V20.6138ZM8.9375 17.8125H22.0625V19.6875H8.9375V17.8125ZM23.9375 17.8125H25.8125V19.6875H23.9375V17.8125ZM23.9375 14.0625H25.8125V15.9375H23.9375V14.0625ZM20.1875 14.0625H22.0625V15.9375H20.1875V14.0625ZM18.3125 15.9375H16.4375V14.0625H18.3125V15.9375ZM14.5625 15.9375H12.6875V14.0625H14.5625V15.9375ZM10.8125 15.9375H8.9375V14.0625H10.8125V15.9375ZM5.1875 14.0625H7.0625V15.9375H5.1875V14.0625ZM5.1875 17.8125H7.0625V19.6875H5.1875V17.8125ZM23.9375 10.3125H25.8125V12.1875H23.9375V10.3125ZM20.1875 10.3125H22.0625V12.1875H20.1875V10.3125ZM18.3125 12.1875H16.4375V10.3125H18.3125V12.1875ZM14.5625 12.1875H12.6875V10.3125H14.5625V12.1875ZM10.8125 12.1875H8.9375V10.3125H10.8125V12.1875ZM5.1875 10.3125H7.0625V12.1875H5.1875V10.3125Z" fill="black"/>
</svg>
