<svg width="29" height="28" viewBox="0 0 29 28" fill="none" xmlns="http://www.w3.org/2000/svg">
<g clip-path="url(#clip0_5172_201)">
<path d="M23.3145 14.9889C23.3145 14.5279 22.9407 14.1541 22.4795 14.1541C22.0183 14.1541 21.6444 14.5279 21.6444 14.9889C21.6444 19.0734 18.3217 22.3961 14.2372 22.3961C10.153 22.3961 6.83026 19.0734 6.83026 14.9889C6.83026 14.5279 6.45642 14.1541 5.99521 14.1541C5.534 14.1541 5.16016 14.5279 5.16016 14.9889C5.16016 19.7127 8.78706 23.6043 13.4022 24.0273V26.2753H10.3034C9.84214 26.2753 9.4683 26.6491 9.4683 27.1103C9.4683 27.5715 9.84214 27.9454 10.3034 27.9454H18.1713C18.6323 27.9454 19.0062 27.5715 19.0062 27.1103C19.0062 26.6491 18.6323 26.2753 18.1713 26.2753H15.0723V24.0273C19.6876 23.6045 23.3145 19.7127 23.3145 14.9889Z" fill="black"/>
<path d="M14.2372 20.3357C17.1854 20.3357 19.584 17.9371 19.584 14.9889V5.29188C19.584 2.34388 17.1854 -0.0546875 14.2372 -0.0546875C11.2892 -0.0546875 8.89062 2.34388 8.89062 5.29188V14.9889C8.89062 17.9371 11.2892 20.3357 14.2372 20.3357ZM10.5605 5.29188C10.5605 3.26459 12.2099 1.61542 14.2372 1.61542C16.2645 1.61542 17.9139 3.26459 17.9139 5.29188V14.9889C17.9139 17.0162 16.2645 18.6656 14.2372 18.6656C12.2099 18.6656 10.5605 17.0162 10.5605 14.9889V5.29188Z" fill="black"/>
</g>
<defs>
<clipPath id="clip0_5172_201">
<rect width="28" height="28" fill="white" transform="translate(0.183594)"/>
</clipPath>
</defs>
</svg>
