<svg width="31" height="30" viewBox="0 0 31 30" fill="none" xmlns="http://www.w3.org/2000/svg">
<path d="M26.1594 2.48438H4.84063C3.93882 2.48685 3.07466 2.84619 2.43699 3.48386C1.79931 4.12153 1.43997 4.9857 1.4375 5.8875V19.5C1.43997 20.4018 1.79931 21.266 2.43699 21.9036C3.07466 22.5413 3.93882 22.9007 4.84063 22.9031H14.5625V24.6656H11.75C11.5014 24.6656 11.2629 24.7644 11.0871 24.9402C10.9113 25.116 10.8125 25.3545 10.8125 25.6031C10.8125 25.8518 10.9113 26.0902 11.0871 26.266C11.2629 26.4419 11.5014 26.5406 11.75 26.5406L19.25 26.4562C19.4986 26.4562 19.7371 26.3575 19.9129 26.1817C20.0887 26.0058 20.1875 25.7674 20.1875 25.5187C20.1875 25.2701 20.0887 25.0317 19.9129 24.8558C19.7371 24.68 19.4986 24.5812 19.25 24.5812H16.4375V22.9031H26.1594C27.0612 22.9007 27.9253 22.5413 28.563 21.9036C29.2007 21.266 29.56 20.4018 29.5625 19.5V5.8875C29.56 4.9857 29.2007 4.12153 28.563 3.48386C27.9253 2.84619 27.0612 2.48685 26.1594 2.48438ZM27.6875 19.5C27.6875 19.9053 27.5265 20.294 27.2399 20.5805C26.9533 20.8671 26.5647 21.0281 26.1594 21.0281H4.84063C4.43534 21.0281 4.04666 20.8671 3.76008 20.5805C3.4735 20.294 3.3125 19.9053 3.3125 19.5V5.8875C3.3125 5.48222 3.4735 5.09353 3.76008 4.80695C4.04666 4.52037 4.43534 4.35938 4.84063 4.35938H26.1594C26.5647 4.35938 26.9533 4.52037 27.2399 4.80695C27.5265 5.09353 27.6875 5.48222 27.6875 5.8875V19.5Z" fill="black"/>
</svg>
