<svg width="45" height="45" viewBox="0 0 45 45" fill="none" xmlns="http://www.w3.org/2000/svg">
<g clip-path="url(#clip0_5911_935)">
<path d="M44.1211 43.2422H43.235V20.2938C43.235 19.9422 43.0254 19.6245 42.7023 19.486L37.0575 17.0667V14.9916C37.0575 13.5377 35.8747 12.3549 34.4208 12.3549H33.5275V10.5791C33.5275 9.12524 32.3446 7.94241 30.8907 7.94241H22.9375V6.17027H27.3608C28.8147 6.17027 29.9975 4.98744 29.9975 3.53355V2.63672C29.9975 1.18283 28.8147 0 27.3608 0H22.0586C21.5732 0 21.1797 0.393486 21.1797 0.878906V7.94241H13.2265C11.7726 7.94241 10.5898 9.12524 10.5898 10.5791V12.3549H10.579C9.12507 12.3549 7.94224 13.5377 7.94224 14.9916V17.0667L2.29746 19.486C1.97429 19.6245 1.76476 19.9422 1.76476 20.2938V43.2422H0.878906C0.393486 43.2422 0 43.6358 0 44.1211C0 44.6064 0.393486 45 0.878906 45H44.1211C44.6065 45 45 44.6064 45 44.1211C45 43.6358 44.6065 43.2422 44.1211 43.2422ZM22.9376 1.75781H27.3609C27.8455 1.75781 28.2398 2.15209 28.2398 2.63672V3.53355C28.2398 4.01818 27.8455 4.41246 27.3609 4.41246H22.9376V1.75781ZM35.2998 30.0048H9.70022V28.2327H35.2998V30.0048ZM9.70022 31.7626H35.2998V33.5348H9.70022V31.7626ZM25.5923 35.2926V43.2422H19.4077V35.2926H25.5923ZM27.3502 35.2926H35.2998V43.2422H27.3502V35.2926ZM12.3478 10.5791C12.3478 10.0945 12.742 9.70022 13.2267 9.70022H30.8908C31.3755 9.70022 31.7697 10.0945 31.7697 10.5791V12.3549H12.3478V10.5791ZM9.70022 14.9916C9.70022 14.507 10.0945 14.1127 10.5791 14.1127H34.4209C34.9055 14.1127 35.2998 14.507 35.2998 14.9916V26.4748H9.70022V14.9916ZM3.52283 20.8733L7.9425 18.9791V43.2422H3.52283V20.8733ZM9.70022 35.2926H17.6498V43.2422H9.70022V35.2926ZM37.0576 43.2422V18.9791L41.4773 20.8733V43.2422H37.0576Z" fill="#A8A9AD"/>
<path d="M12.3516 23.8202C12.837 23.8202 13.2305 23.4267 13.2305 22.9413V20.5947L15.0171 23.3141C15.5515 24.1248 16.7604 23.7694 16.7604 22.7629V17.6464C16.7604 17.1609 16.3669 16.7675 15.8815 16.7675C15.3961 16.7675 15.0026 17.1609 15.0026 17.6464V20.0907L13.0861 17.1737C12.8728 16.8492 12.4718 16.7031 12.0997 16.8142C11.7275 16.9256 11.4727 17.2679 11.4727 17.6563V22.9413C11.4727 23.4267 11.8661 23.8202 12.3516 23.8202Z" fill="#A8A9AD"/>
<path d="M24.7025 20.2938C24.7025 19.8085 24.309 19.4149 23.8236 19.4149H22.4067C21.9213 19.4149 21.5278 19.8085 21.5278 20.2938C21.5278 20.7791 21.9213 21.1727 22.4067 21.1727H22.8158C22.655 21.6696 22.3315 22.0623 21.7792 22.0623C20.907 22.0623 20.2516 21.1839 20.2919 20.2051C20.3465 18.8718 21.6098 18.0717 22.5735 18.7997C22.9609 19.0922 23.5119 19.0155 23.8046 18.6282C24.0972 18.2409 24.0204 17.6897 23.633 17.3971C21.5373 15.8141 18.6481 17.3884 18.5355 20.133C18.4937 21.1505 18.8566 22.137 19.531 22.8396C21.3604 24.7457 24.7025 23.8706 24.7025 20.2938Z" fill="#A8A9AD"/>
<path d="M30.001 23.8202C31.9455 23.8202 33.5274 22.2383 33.5274 20.2939C33.5274 18.3494 31.9455 16.7675 30.001 16.7675C28.0566 16.7675 26.4746 18.3494 26.4746 20.2939C26.4747 22.2382 28.0566 23.8202 30.001 23.8202ZM30.001 18.5252C30.9762 18.5252 31.7696 19.3186 31.7696 20.2938C31.7696 21.269 30.9762 22.0623 30.001 22.0623C29.0258 22.0623 28.2324 21.269 28.2324 20.2938C28.2325 19.3187 29.0258 18.5252 30.001 18.5252Z" fill="#A8A9AD"/>
</g>
<defs>
<clipPath id="clip0_5911_935">
<rect width="45" height="45" fill="white"/>
</clipPath>
</defs>
</svg>
