<svg width="31" height="30" viewBox="0 0 31 30" fill="none" xmlns="http://www.w3.org/2000/svg">
<path fill-rule="evenodd" clip-rule="evenodd" d="M11.0113 2.8125C11.529 2.8125 11.9488 3.23224 11.9488 3.75V5.08459C12.2252 5.06964 12.5091 5.0625 12.8 5.0625H14.5625V3.75C14.5625 3.23224 14.9823 2.8125 15.5 2.8125C16.0177 2.8125 16.4375 3.23224 16.4375 3.75V5.0625H18.2C18.4949 5.0625 18.7825 5.06984 19.0625 5.0852V3.75C19.0625 3.23224 19.4823 2.8125 20 2.8125C20.5177 2.8125 20.9375 3.23224 20.9375 3.75V5.34266C22.0398 5.60552 22.9701 6.06929 23.7004 6.79959C24.4308 7.52989 24.8945 8.4603 25.1574 9.5625H26.75C27.2677 9.5625 27.6875 9.98224 27.6875 10.5C27.6875 11.0178 27.2677 11.4375 26.75 11.4375H25.4148C25.4301 11.7175 25.4375 12.0051 25.4375 12.3V14.0625H26.75C27.2677 14.0625 27.6875 14.4823 27.6875 15C27.6875 15.5177 27.2677 15.9375 26.75 15.9375H25.4375V17.7C25.4375 17.9949 25.4301 18.2825 25.4148 18.5625H26.75C27.2677 18.5625 27.6875 18.9823 27.6875 19.5C27.6875 20.0177 27.2677 20.4375 26.75 20.4375H25.1574C24.8945 21.5398 24.4308 22.4701 23.7004 23.2004C22.9701 23.9308 22.0398 24.3945 20.9375 24.6574V26.25C20.9375 26.7677 20.5177 27.1875 20 27.1875C19.4823 27.1875 19.0625 26.7677 19.0625 26.25V24.9148C18.7825 24.9301 18.4949 24.9375 18.2 24.9375H16.4487V26.25C16.4487 26.7677 16.029 27.1875 15.5112 27.1875C14.9935 27.1875 14.5737 26.7677 14.5737 26.25V24.9375H12.8C12.5091 24.9375 12.2252 24.9304 11.9488 24.9154V26.25C11.9488 26.7677 11.529 27.1875 11.0113 27.1875C10.4935 27.1875 10.0738 26.7677 10.0738 26.25V24.66C8.96662 24.3976 8.03237 23.9333 7.29959 23.2004C6.56929 22.4701 6.10552 21.5398 5.84266 20.4375H4.25C3.73224 20.4375 3.3125 20.0177 3.3125 19.5C3.3125 18.9823 3.73224 18.5625 4.25 18.5625H5.5852C5.56984 18.2825 5.5625 17.9949 5.5625 17.7V15.9375H4.25C3.73224 15.9375 3.3125 15.5177 3.3125 15C3.3125 14.4823 3.73224 14.0625 4.25 14.0625H5.5625V12.3C5.5625 12.0051 5.56984 11.7175 5.5852 11.4375H4.25C3.73224 11.4375 3.3125 11.0178 3.3125 10.5C3.3125 9.98224 3.73224 9.5625 4.25 9.5625H5.84266C6.10552 8.4603 6.56929 7.52989 7.29959 6.79959C8.03237 6.0668 8.96662 5.60237 10.0738 5.33999V3.75C10.0738 3.23224 10.4935 2.8125 11.0113 2.8125ZM7.4375 17.7C7.4375 19.8575 7.87475 21.1239 8.62541 21.8746C9.37607 22.6252 10.6425 23.0625 12.8 23.0625H18.2C20.3575 23.0625 21.6239 22.6252 22.3746 21.8746C23.1252 21.1239 23.5625 19.8575 23.5625 17.7V12.3C23.5625 10.1425 23.1252 8.87607 22.3746 8.12541C21.6239 7.37475 20.3575 6.9375 18.2 6.9375H12.8C10.6425 6.9375 9.37607 7.37475 8.62541 8.12541C7.87475 8.87607 7.4375 10.1425 7.4375 12.3V17.7ZM10.1262 9.62615C11.0208 8.7315 12.3138 8.4375 13.8125 8.4375H17.1875C18.6863 8.4375 19.9793 8.7315 20.8739 9.62615C21.7685 10.5208 22.0625 11.8138 22.0625 13.3125V16.6875C22.0625 18.1863 21.7685 19.4793 20.8739 20.3739C19.9793 21.2685 18.6863 21.5625 17.1875 21.5625H13.8125C12.3138 21.5625 11.0208 21.2685 10.1262 20.3739C9.2315 19.4793 8.9375 18.1863 8.9375 16.6875V13.3125C8.9375 11.8138 9.2315 10.5208 10.1262 9.62615ZM11.452 10.952C11.081 11.323 10.8125 11.9987 10.8125 13.3125V16.6875C10.8125 18.0013 11.081 18.677 11.452 19.048C11.823 19.419 12.4987 19.6875 13.8125 19.6875H17.1875C18.5013 19.6875 19.177 19.419 19.548 19.048C19.919 18.677 20.1875 18.0013 20.1875 16.6875V13.3125C20.1875 11.9987 19.919 11.323 19.548 10.952C19.177 10.581 18.5013 10.3125 17.1875 10.3125H13.8125C12.4987 10.3125 11.823 10.581 11.452 10.952Z" fill="black"/>
</svg>
