<svg width="31" height="30" viewBox="0 0 31 30" fill="none" xmlns="http://www.w3.org/2000/svg">
<path d="M21.1625 1.875H9.8375C8.30759 1.875 7.0625 3.12009 7.0625 4.65V25.35C7.0625 26.8799 8.30759 28.125 9.8375 28.125H21.1625C22.6923 28.125 23.9375 26.8799 23.9375 25.35V4.65C23.9375 3.12009 22.6924 1.875 21.1625 1.875ZM22.0625 25.35C22.0625 25.8462 21.6587 26.25 21.1625 26.25H9.8375C9.34128 26.25 8.9375 25.8462 8.9375 25.35V4.65C8.9375 4.15378 9.34128 3.75 9.8375 3.75H21.1625C21.6587 3.75 22.0625 4.15378 22.0625 4.65V25.35Z" fill="black"/>
<path d="M15.5 15.9375C12.9155 15.9375 10.8125 18.0405 10.8125 20.625C10.8125 23.2095 12.9155 25.3125 15.5 25.3125C18.0845 25.3125 20.1875 23.2095 20.1875 20.625C20.1875 18.0405 18.0845 15.9375 15.5 15.9375ZM15.5 23.4375C13.9491 23.4375 12.6875 22.1759 12.6875 20.625C12.6875 19.0741 13.9491 17.8125 15.5 17.8125C17.0509 17.8125 18.3125 19.0741 18.3125 20.625C18.3125 22.1759 17.0509 23.4375 15.5 23.4375Z" fill="black"/>
<path d="M15.5 18.75C14.4664 18.75 13.625 19.5914 13.625 20.625C13.625 21.6586 14.4664 22.5 15.5 22.5C16.5336 22.5 17.375 21.6586 17.375 20.625C17.375 19.5914 16.5336 18.75 15.5 18.75ZM15.5 21.5625L15.4991 20.6259L15.5009 20.625L15.5 21.5625Z" fill="black"/>
<path d="M15.5 4.6875C12.9155 4.6875 10.8125 6.7905 10.8125 9.375C10.8125 11.9595 12.9155 14.0625 15.5 14.0625C18.0845 14.0625 20.1875 11.9595 20.1875 9.375C20.1875 6.7905 18.0845 4.6875 15.5 4.6875ZM15.5 12.1875C13.9491 12.1875 12.6875 10.9259 12.6875 9.375C12.6875 7.82409 13.9491 6.5625 15.5 6.5625C17.0509 6.5625 18.3125 7.82409 18.3125 9.375C18.3125 10.9259 17.0509 12.1875 15.5 12.1875Z" fill="black"/>
<path d="M15.5 7.5C14.4664 7.5 13.625 8.34141 13.625 9.375C13.625 10.4086 14.4664 11.25 15.5 11.25C16.5336 11.25 17.375 10.4086 17.375 9.375C17.375 8.34141 16.5336 7.5 15.5 7.5ZM15.5 10.3125L15.4991 9.37594L15.5009 9.375L15.5 10.3125Z" fill="black"/>
</svg>
