<svg width="18" height="20" viewBox="0 0 18 20" fill="none" xmlns="http://www.w3.org/2000/svg">
<path d="M13.4464 4.02372C12.8083 3.29213 12.4247 2.3382 12.4247 1.29533H11.6251M13.4464 4.02372C14.028 4.6907 14.8154 5.17577 15.7121 5.36571C15.9907 5.42634 16.2814 5.45871 16.5844 5.45871V8.44979C15.0335 8.44979 13.5957 7.95267 12.4245 7.11189V13.1952C12.4245 16.2349 9.9528 18.7047 6.9198 18.7047C5.33257 18.7047 3.89883 18.0255 2.8932 16.9463C1.97642 15.9601 1.41504 14.6423 1.41504 13.1952C1.41504 10.2 3.81403 7.75863 6.78651 7.69395M13.4464 4.02372C13.4309 4.01359 13.4154 4.00336 13.4 3.99303M4.88434 14.6585C4.58548 14.2462 4.40777 13.741 4.40777 13.1912C4.40777 11.8048 5.53457 10.677 6.91987 10.677C7.17834 10.677 7.42871 10.7214 7.66295 10.7942V7.73846C7.42062 7.70609 7.17429 7.68586 6.91987 7.68586C6.87542 7.68586 6.51757 7.70966 6.47314 7.70966M11.6208 1.29533H9.43183L9.42782 13.2882C9.37934 14.6302 8.27271 15.7095 6.9198 15.7095C6.07973 15.7095 5.34064 15.2931 4.88024 14.6626" stroke="black" stroke-linejoin="round"/>
</svg>
