<svg width="45" height="45" viewBox="0 0 45 45" fill="none" xmlns="http://www.w3.org/2000/svg">
<path d="M44.8335 42.2235C44.0915 40.6974 43.0746 39.3433 41.8105 38.1984C41.5407 37.9539 41.1239 37.9745 40.8794 38.2444C40.635 38.5142 40.6556 38.931 40.9254 39.1755C42.0639 40.2068 42.9799 41.4259 43.648 42.7999C43.716 42.94 43.6665 43.056 43.6311 43.1127C43.6023 43.1587 43.5182 43.2651 43.3561 43.2651H1.64559C1.47633 43.2651 1.39222 43.1508 1.36407 43.1017C1.32939 43.0416 1.28338 42.9201 1.36407 42.781C2.72705 40.4379 5.25562 38.9822 7.96306 38.9822C8.5886 38.9822 9.21172 39.0584 9.81563 39.2091C10.0529 39.2682 10.3042 39.1909 10.4673 39.0083C11.3369 38.0325 12.3267 37.177 13.413 36.4584C14.3128 37.6278 15.7249 38.3834 17.311 38.3834H21.4694C21.8274 38.3834 22.1793 38.3038 22.5017 38.153C22.8155 38.3007 23.165 38.3834 23.5317 38.3834H27.69C29.409 38.3834 30.9241 37.4959 31.8034 36.1556C32.182 36.1192 32.5652 36.0996 32.9452 36.0996C34.9049 36.0996 36.8485 36.5871 38.5654 37.51C38.6646 37.5632 38.7714 37.5886 38.8768 37.5886C39.1117 37.5886 39.3393 37.4626 39.4581 37.2412C39.6304 36.9205 39.5103 36.5209 39.1896 36.3485C37.2814 35.3234 35.1219 34.7813 32.9452 34.7813C32.7715 34.7813 32.5978 34.7861 32.4237 34.7929C32.5422 34.3707 32.6067 33.9261 32.6067 33.4667V33.2219H41.8339C42.1978 33.2219 42.493 32.927 42.493 32.5627C42.493 32.1988 42.1978 31.9035 41.8339 31.9035H32.6067V26.7637C32.6067 26.34 32.523 25.9359 32.3719 25.5658H41.8339C42.1978 25.5658 42.493 25.2709 42.493 24.9066C42.493 24.5427 42.1978 24.2475 41.8339 24.2475H31.4048V24.2265C31.4048 22.6126 30.0919 21.2997 28.4783 21.2997H24.3457V18.0601C24.3612 18.0601 24.3756 18.0608 24.3907 18.0608C24.6265 18.0608 24.8834 18.0464 25.1621 18.0179C26.0946 17.9218 27.163 17.6698 27.7034 17.4178C28.8748 16.8712 29.3836 15.4735 28.8374 14.3018C28.5727 13.7343 28.1027 13.3037 27.5142 13.0895C26.9258 12.8753 26.2893 12.9031 25.7214 13.1678C25.3602 13.336 24.8473 13.6855 24.3461 14.0937V11.2204C24.893 11.3234 25.5075 11.3684 26.1557 11.3684C28.4309 11.3684 31.1016 10.8294 32.5659 10.4287C32.9167 10.3326 33.1238 9.97007 33.0276 9.61885C32.9315 9.26797 32.569 9.06164 32.2177 9.15708C29.648 9.86055 26.1471 10.3165 24.3461 9.87359V6.97355C26.027 4.83568 29.2913 2.3387 30.7092 1.67746C31.6303 1.24797 32.6637 1.20265 33.6188 1.55043C34.574 1.89787 35.3365 2.59688 35.766 3.51801C36.5028 5.09832 36.0753 6.97115 34.7264 8.07218C34.4445 8.30255 34.4023 8.71763 34.6327 8.99949C34.7628 9.15914 34.9526 9.24222 35.1435 9.24222C35.2901 9.24222 35.4378 9.19347 35.56 9.09356C37.3768 7.61041 37.9529 5.08871 36.9607 2.9608C36.3822 1.72072 35.3557 0.779674 34.0696 0.311725C32.7839 -0.156223 31.3924 -0.0957981 30.1523 0.4827C28.8546 1.08798 26.2621 2.97144 24.3461 4.97335V3.70409C24.3461 2.68649 23.5183 1.85874 22.5007 1.85874C21.4834 1.85874 20.6557 2.68649 20.6557 3.70409V7.90327C20.551 7.79615 20.4418 7.68766 20.3285 7.57745C19.0764 6.36312 17.3893 5.10073 16.404 4.64136C15.4458 4.1947 14.3708 4.14732 13.3773 4.50918C12.3837 4.8707 11.5906 5.59751 11.1436 6.55607C10.2211 8.53429 11.0801 10.8939 13.0583 11.8165C14.0433 12.2758 16.095 12.7568 17.8301 12.9353C18.3527 12.9889 18.8323 13.0157 19.2693 13.0157C19.7936 13.0157 20.2557 12.9769 20.6557 12.8996V17.0092C19.9666 16.3809 19.2 15.8512 18.7859 15.6582C18.2184 15.3935 17.5816 15.3657 16.9931 15.5796C16.4047 15.7942 15.935 16.2244 15.6703 16.7922C15.4056 17.3597 15.3778 17.9966 15.592 18.5851C15.8063 19.1735 16.2364 19.6435 16.8043 19.9079C17.3378 20.1571 18.8292 20.5509 20.0816 20.5509C20.2811 20.5509 20.4734 20.5399 20.6557 20.518V21.2997H16.5231C14.9092 21.2997 13.5963 22.6126 13.5963 24.2262V24.2475H3.16719C2.80327 24.2475 2.50801 24.5424 2.50801 24.9066C2.50801 25.2706 2.80327 25.5658 3.16719 25.5658H12.6292C12.4781 25.9356 12.394 26.34 12.394 26.7637V31.9035H10.0202C9.65633 31.9035 9.36107 32.1985 9.36107 32.5627C9.36107 32.9266 9.65633 33.2219 10.0202 33.2219H12.394V33.4664C12.394 34.1197 12.5231 34.7428 12.7555 35.3134C11.6555 36.033 10.6454 36.8803 9.74662 37.8423C9.16091 37.7235 8.56285 37.6638 7.96306 37.6638C4.78802 37.6638 1.82274 39.3705 0.224579 42.1181C-0.0737683 42.6306 -0.0747982 43.2442 0.221146 43.7592C0.518119 44.2752 1.05061 44.5835 1.64559 44.5835H43.3561C43.9257 44.5835 44.4462 44.2951 44.7487 43.812C45.0508 43.3293 45.0824 42.7354 44.8335 42.2235ZM13.7123 33.4667V26.7637C13.7123 25.7368 14.5476 24.9015 15.5745 24.9015H19.7586C19.5969 25.2232 19.5052 25.5857 19.5052 25.9696C19.5052 26.3469 19.5938 26.7057 19.7517 27.0249H18.3142C17.95 27.0249 17.655 27.3202 17.655 27.6841C17.655 28.0484 17.95 28.3433 18.3142 28.3433H20.082C19.9488 28.6427 19.8753 28.9712 19.8753 29.3122C19.8753 29.696 19.9677 30.0585 20.1294 30.3802H17.5898C17.2259 30.3802 16.9306 30.6751 16.9306 31.0394C16.9306 31.4033 17.2259 31.6986 17.5898 31.6986H20.6962C20.5654 31.9952 20.4923 32.3193 20.4923 32.6544C20.4923 33.0382 20.5846 33.4008 20.7463 33.7225H17.0765C16.7126 33.7225 16.4174 34.0177 16.4174 34.3816C16.4174 34.7459 16.7126 35.0408 17.0765 35.0408H21.3118C21.1734 35.3567 21.1003 35.7038 21.1102 36.0636C21.1202 36.422 21.2126 36.7616 21.3691 37.0651H17.311C15.327 37.0654 13.7123 35.4508 13.7123 33.4667ZM27.69 37.0654H23.5317C22.9388 37.0654 22.4437 36.5999 22.4279 36.0275C22.4166 35.6087 22.6511 35.2248 23.0205 35.0412H27.9245C28.2884 35.0412 28.5837 34.7459 28.5837 34.382C28.5837 34.0177 28.2884 33.7228 27.9245 33.7228H22.879C22.2899 33.7228 21.8106 33.2435 21.8106 32.6547C21.8106 32.2493 22.0455 31.8778 22.4039 31.6986H27.4112C27.7752 31.6986 28.0704 31.4037 28.0704 31.0394C28.0704 30.6755 27.7752 30.3802 27.4112 30.3802H22.2621C21.6733 30.3802 21.194 29.9013 21.194 29.3122C21.194 28.8943 21.4391 28.517 21.813 28.3436H26.6868C27.0511 28.3436 27.346 28.0484 27.346 27.6845C27.346 27.3202 27.0511 27.0253 26.6868 27.0253H21.7347C21.2136 26.9484 20.8239 26.5003 20.8239 25.9699C20.8239 25.3808 21.3028 24.9018 21.892 24.9018H29.4269C30.4534 24.9018 31.2887 25.7371 31.2887 26.7637V33.4667C31.2887 35.4508 29.6741 37.0654 27.69 37.0654ZM28.4783 22.6181C29.1546 22.6181 29.7338 23.0383 29.971 23.6309C29.7939 23.6003 29.6123 23.5835 29.4265 23.5835H24.3457V22.6181H28.4783ZM24.7124 15.5178C25.2991 14.9781 25.9693 14.5064 26.2786 14.3622C26.5268 14.2468 26.806 14.2345 27.0631 14.3282C27.3209 14.4219 27.5266 14.6104 27.6423 14.859C27.8816 15.3719 27.6588 15.9837 27.1458 16.223C26.8369 16.3668 26.0448 16.5773 25.2541 16.68C24.4 16.7905 23.9413 16.7328 23.749 16.6741C23.828 16.4894 24.0783 16.1011 24.7124 15.5178ZM17.9647 11.6238C16.198 11.4422 14.3657 10.9715 13.6152 10.6217C12.9759 10.3237 12.4911 9.79463 12.2501 9.13167C12.0088 8.46906 12.04 7.7522 12.338 7.11328C12.636 6.47402 13.1654 5.98924 13.828 5.74789C14.1226 5.64077 14.4278 5.58756 14.7323 5.58756C15.1127 5.58756 15.4918 5.67064 15.8468 5.83612C16.5969 6.18597 18.1354 7.287 19.4101 8.52399C20.9554 10.0226 21.3269 10.9726 21.1995 11.2452C21.0725 11.5181 20.106 11.8436 17.9647 11.6238ZM22.3946 11.8024C22.6809 11.1885 22.5385 10.4253 21.9737 9.52237V3.70409C21.9737 3.4133 22.2099 3.17709 22.5004 3.17709C22.7911 3.17709 23.0274 3.4133 23.0274 3.70409V15.3812C22.4351 16.1183 22.2628 16.7356 22.5048 17.2543C22.6119 17.4837 22.7857 17.6632 23.0274 17.7944V23.5835H21.9737V12.3424C22.1574 12.1886 22.2985 12.0087 22.3946 11.8024ZM17.3612 18.7131C17.1126 18.5974 16.9241 18.3918 16.8304 18.1343C16.7367 17.8764 16.7487 17.5977 16.8647 17.3494C16.9804 17.1009 17.1861 16.9124 17.4439 16.8187C17.5582 16.7768 17.677 16.7562 17.7955 16.7562C17.9434 16.7562 18.0907 16.7884 18.2287 16.853C18.7533 17.0978 20.1562 18.1796 20.6553 18.9778V19.1951C19.9546 19.3414 18.0986 19.0571 17.3612 18.7131ZM16.5228 22.6181H20.6553V23.5835H15.5745C15.3888 23.5835 15.2072 23.6003 15.03 23.6309C15.2672 23.0383 15.8464 22.6181 16.5228 22.6181Z" fill="#6DBE4F"/>
<path d="M34.3512 40.2842C34.3498 40.2842 34.3481 40.2842 34.3464 40.2842C33.9845 40.2842 33.6899 40.5763 33.6875 40.9386C33.6848 41.3028 33.9776 41.5998 34.3419 41.6025H34.3536H34.3584C34.7202 41.6025 35.0148 41.3107 35.0175 40.9482C35.0203 40.5842 34.7271 40.2869 34.3632 40.2842H34.3512Z" fill="#6DBE4F"/>
<path d="M32.7183 39.499C32.717 39.499 32.7153 39.499 32.7135 39.499C32.3517 39.499 32.0571 39.7908 32.0547 40.1534C32.052 40.5173 32.3448 40.8146 32.7091 40.8174H32.7208H32.7256C33.0874 40.8174 33.382 40.5256 33.3847 40.163C33.3875 39.7991 33.0943 39.5018 32.7304 39.499H32.7183Z" fill="#6DBE4F"/>
<path d="M14.4101 39.499C14.4084 39.499 14.4067 39.499 14.4053 39.499C14.0434 39.499 13.7489 39.7908 13.7461 40.1534C13.7434 40.5173 14.0366 40.8146 14.4005 40.8174H14.4125H14.4173C14.7792 40.8174 15.0737 40.5256 15.0761 40.163C15.0789 39.7991 14.786 39.5018 14.4218 39.499H14.4101Z" fill="#6DBE4F"/>
<path d="M6.76063 33.2222C7.12455 33.2222 7.41981 32.9273 7.41981 32.563C7.41981 32.1987 7.12455 31.9038 6.76063 31.9038H3.15918C2.79526 31.9038 2.5 32.1987 2.5 32.563C2.5 32.9273 2.79526 33.2222 3.15918 33.2222H6.76063Z" fill="#6DBE4F"/>
</svg>
