<svg width="20" height="20" viewBox="0 0 20 20" fill="none" xmlns="http://www.w3.org/2000/svg">
<g clip-path="url(#clip0_5430_1549)">
<path d="M13.0786 9.10127L8.66015 6.68367C8.40609 6.54467 8.1058 6.54985 7.85678 6.69741C7.6076 6.84511 7.45898 7.10603 7.45898 7.39564V12.1893C7.45898 12.4776 7.60669 12.738 7.85419 12.8859C7.98343 12.9631 8.12671 13.0019 8.27029 13.0019C8.40182 13.0019 8.53366 12.9694 8.65496 12.904L13.0736 10.5281C13.3359 10.387 13.4996 10.1143 13.5008 9.81629C13.5019 9.51829 13.3402 9.24439 13.0786 9.10127ZM8.63101 11.5863V8.00355L11.9333 9.81049L8.63101 11.5863Z" fill="black"/>
<path d="M19.8528 5.99718L19.8519 5.98802C19.835 5.82704 19.6664 4.39516 18.9703 3.66687C18.1657 2.81024 17.2535 2.70618 16.8148 2.65628C16.7785 2.65216 16.7452 2.64835 16.7155 2.64438L16.6805 2.64072C14.0365 2.44846 10.0434 2.42221 10.0035 2.42206L9.99996 2.42191L9.99645 2.42206C9.95647 2.42221 5.96342 2.44846 3.29558 2.64072L3.26033 2.64438C3.23195 2.64819 3.20067 2.6517 3.16664 2.65567C2.73299 2.70572 1.83059 2.80994 1.02371 3.69754C0.360716 4.41805 0.169067 5.81926 0.149383 5.97673L0.147094 5.99718C0.141143 6.06416 0 7.65885 0 9.2598V10.7564C0 12.3573 0.141143 13.952 0.147094 14.0191L0.148162 14.0292C0.165099 14.1876 0.333556 15.5932 1.02645 16.3218C1.78298 17.1498 2.73955 17.2593 3.25408 17.3182C3.33541 17.3275 3.40544 17.3355 3.4532 17.3439L3.49944 17.3503C5.02607 17.4955 9.81258 17.5671 10.0155 17.57L10.0216 17.5702L10.0277 17.57C10.0677 17.5699 14.0606 17.5436 16.7046 17.3514L16.7396 17.3477C16.773 17.3433 16.8105 17.3393 16.8517 17.335C17.283 17.2892 18.1805 17.1942 18.9762 16.3186C19.6392 15.598 19.831 14.1968 19.8505 14.0394L19.8528 14.019C19.8588 13.9519 20.0001 12.3573 20.0001 10.7564V9.2598C19.9999 7.65885 19.8588 6.06432 19.8528 5.99718ZM18.8279 10.7564C18.8279 12.2382 18.6985 13.7642 18.6863 13.9043C18.6366 14.2901 18.4344 15.1767 18.1113 15.5278C17.6133 16.0757 17.1017 16.13 16.7281 16.1696C16.683 16.1743 16.6412 16.1789 16.6033 16.1836C14.046 16.3685 10.2037 16.3969 10.0267 16.398C9.82815 16.3951 5.11167 16.3229 3.63158 16.1854C3.55574 16.1731 3.4738 16.1636 3.38744 16.1538C2.94936 16.1036 2.34969 16.035 1.88857 15.5278L1.87774 15.5162C1.56036 15.1855 1.36398 14.3565 1.31408 13.9088C1.30477 13.8029 1.17202 12.2589 1.17202 10.7564V9.2598C1.17202 7.7797 1.30111 6.25536 1.31362 6.11238C1.37298 5.65782 1.57897 4.825 1.88857 4.4884C2.40188 3.92382 2.9431 3.86126 3.30107 3.81991C3.33525 3.81594 3.36714 3.81228 3.39659 3.80847C5.99119 3.62261 9.86111 3.595 9.99996 3.59393C10.1388 3.59484 14.0074 3.62261 16.5789 3.80847C16.6105 3.81243 16.645 3.8164 16.6821 3.82067C17.0503 3.86263 17.6067 3.92611 18.1175 4.47085L18.1222 4.47588C18.4396 4.80654 18.6359 5.65004 18.6858 6.10674C18.6947 6.20668 18.8279 7.75407 18.8279 9.2598V10.7564Z" fill="black"/>
</g>
<defs>
<clipPath id="clip0_5430_1549">
<rect width="20" height="19.9999" fill="white"/>
</clipPath>
</defs>
</svg>
